<svg width="48" height="48" viewBox="0 0 48 48" fill="none" xmlns="http://www.w3.org/2000/svg">
<g clip-path="url(#clip0)">
<path d="M47.9928 15.6317C47.9928 11.6287 46.469 7.62598 43.421 4.57837C40.4682 1.62598 36.5425 0 32.3666 0C28.1907 0 24.2649 1.62598 21.3121 4.57837L2.49034 29.3654C-1.09743 33.8708 -0.808493 40.4689 3.35899 44.6356C5.59837 46.875 8.54014 47.9945 11.4819 47.9945C11.5486 47.9945 11.6152 47.9934 11.6815 47.9923V48H41.1062V47.9956C44.8653 47.9044 47.9045 44.8656 47.9957 41.1072H48.0001V15.6317H47.9928ZM23.3021 6.56836C25.7231 4.14734 28.9425 2.81396 32.3666 2.81396C35.7906 2.81396 39.01 4.14734 41.431 6.56836C46.4294 11.566 46.4294 19.6974 41.431 24.6951C39.01 27.1161 35.7906 28.4495 32.3666 28.4495C28.9425 28.4495 25.7231 27.1161 23.3021 24.6951C18.3041 19.6974 18.3041 11.566 23.3021 6.56836ZM5.34898 42.646C1.96739 39.2648 1.96739 33.7628 5.34898 30.3816C7.04014 28.6908 9.26048 27.8456 11.4819 27.8456C13.7026 27.8456 15.9241 28.6912 17.6148 30.3816C20.9964 33.7628 20.9964 39.2648 17.6148 42.646C14.2329 46.0272 8.73057 46.0272 5.34898 42.646ZM40.933 45.186C38.5877 45.186 36.6798 43.2784 36.6798 40.9336C36.6798 38.5887 38.5877 36.6812 40.933 36.6812C43.2778 36.6812 45.1858 38.5887 45.1858 40.9336C45.1858 43.2784 43.2778 45.186 40.933 45.186ZM45.1858 35.2943C44.0014 34.3993 42.5282 33.8672 40.933 33.8672C37.0357 33.8672 33.8655 37.0371 33.8655 40.9336C33.8655 42.5288 34.3976 44.0017 35.2926 45.186H19.0138C19.2156 45.0106 19.4129 44.8275 19.6048 44.6356C24.0836 40.1572 24.0836 32.8704 19.6048 28.392C16.7597 25.5472 12.782 24.5101 9.10996 25.2792L16.7477 15.1831C16.6294 19.3341 18.1506 23.5236 21.3121 26.6847C24.2649 29.6371 28.191 31.2634 32.3666 31.2634C36.5425 31.2634 40.4686 29.6375 43.4214 26.6847C44.0809 26.0251 44.669 25.3206 45.1858 24.5812V35.2943Z" fill="#3FC264"/>
<path d="M25.2074 15.6416V15.6317C25.2074 14.376 25.5366 13.1415 26.1599 12.0612C26.5481 11.3881 26.3174 10.5278 25.6439 10.1397C24.9708 9.75112 24.1102 9.98219 23.722 10.6553C22.8527 12.1622 22.3931 13.8831 22.3931 15.6317V15.6416C22.3931 16.4187 23.0229 17.0486 23.8004 17.0486C24.5775 17.0486 25.2074 16.4187 25.2074 15.6416Z" fill="#3FC264"/>
<path d="M35.9477 21.8316C34.8663 22.4578 33.6293 22.7893 32.3706 22.79C31.5935 22.7904 30.964 23.4206 30.9644 24.1977C30.9647 24.9744 31.5946 25.604 32.3717 25.604H32.3724C34.1251 25.6029 35.8489 25.1403 37.358 24.2666C38.0308 23.8773 38.2604 23.0167 37.8707 22.344C37.4814 21.6716 36.6205 21.442 35.9477 21.8316Z" fill="#3FC264"/>
<path d="M28.7923 21.8353C27.705 21.2076 26.7975 20.302 26.168 19.2158C25.7784 18.5438 24.917 18.3149 24.2447 18.7046C23.5723 19.0942 23.3434 19.9552 23.7334 20.6275C24.6094 22.1382 25.8721 23.3987 27.3846 24.2721C27.6065 24.4002 27.8482 24.461 28.087 24.461C28.5733 24.461 29.0464 24.2087 29.3068 23.7575C29.6957 23.0844 29.465 22.2242 28.7923 21.8353Z" fill="#3FC264"/>
<path d="M39.5256 15.6119V15.6317C39.5256 16.8904 39.1949 18.1274 38.569 19.2092C38.1801 19.882 38.4101 20.7426 39.0828 21.1315C39.3044 21.26 39.5468 21.3208 39.786 21.3208C40.2719 21.3208 40.7443 21.0688 41.0055 20.618C41.8785 19.1085 42.3399 17.3844 42.3399 15.6317V15.6119C42.3399 14.8348 41.71 14.205 40.9329 14.205C40.1555 14.205 39.5256 14.8348 39.5256 15.6119Z" fill="#3FC264"/>
<path d="M28.0727 9.62659C28.3125 9.62659 28.5557 9.56506 28.778 9.43579C29.859 8.80847 31.0957 8.47559 32.354 8.47339C33.1311 8.47229 33.7603 7.84131 33.7588 7.06421C33.7574 6.28784 33.1278 5.65942 32.3518 5.65942C32.3511 5.65942 32.35 5.65942 32.3493 5.65942C30.5966 5.66235 28.8732 6.12671 27.3648 7.00232C26.6928 7.3927 26.4643 8.25366 26.8547 8.92566C27.1158 9.37537 27.5878 9.62659 28.0727 9.62659Z" fill="#3FC264"/>
<path d="M35.9336 9.42373C37.0212 10.0503 37.9298 10.9549 38.5608 12.0403C38.8219 12.4896 39.2936 12.7405 39.7785 12.7405C40.0187 12.7405 40.2618 12.6786 40.4845 12.5493C41.1561 12.159 41.3843 11.2976 40.9935 10.626C40.1157 9.11611 38.8516 7.85708 37.3384 6.9855C36.6646 6.59768 35.8043 6.82913 35.4165 7.50222C35.0287 8.17568 35.2601 9.03591 35.9336 9.42373Z" fill="#3FC264"/>
<path d="M32.3665 20.0951C34.8281 20.0951 36.8306 18.0926 36.8306 15.6317C36.8306 13.1704 34.8281 11.1683 32.3665 11.1683C29.9048 11.1683 27.9023 13.1704 27.9023 15.6317C27.9023 18.0926 29.9048 20.0951 32.3665 20.0951ZM32.3665 13.9823C33.2761 13.9823 34.0162 14.722 34.0162 15.6317C34.0162 16.541 33.2761 17.2811 32.3665 17.2811C31.4568 17.2811 30.7167 16.541 30.7167 15.6317C30.7167 14.722 31.4568 13.9823 32.3665 13.9823Z" fill="#3FC264"/>
<path d="M11.4819 32.0504C9.02026 32.0504 7.01782 34.0529 7.01782 36.5138C7.01782 38.9751 9.02063 40.9772 11.4819 40.9772C13.9432 40.9772 15.946 38.9751 15.946 36.5138C15.946 34.0529 13.9432 32.0504 11.4819 32.0504ZM11.4819 38.1632C10.5723 38.1632 9.83215 37.4235 9.83215 36.5138C9.83215 35.6045 10.5723 34.8644 11.4819 34.8644C12.3916 34.8644 13.1317 35.6045 13.1317 36.5138C13.1317 37.4235 12.3916 38.1632 11.4819 38.1632Z" fill="#3FC264"/>
<path d="M40.9327 39.0575C40.1553 39.0575 39.5254 39.6874 39.5254 40.4645V41.4027C39.5254 42.1798 40.1553 42.8097 40.9327 42.8097C41.7098 42.8097 42.3397 42.1798 42.3397 41.4027V40.4645C42.3397 39.6874 41.7098 39.0575 40.9327 39.0575Z" fill="#3FC264"/>
</g>
<defs>
<clipPath id="clip0">
<rect width="48" height="48" fill="white"/>
</clipPath>
</defs>
</svg>
