<svg width="48" height="48" viewBox="0 0 48 48" fill="none" xmlns="http://www.w3.org/2000/svg">
<path d="M34.98 36H32.1675V40H34.98V36Z" fill="#F2994A"/>
<path d="M40.2957 36H37.4832V40H40.2957V36Z" fill="#F2994A"/>
<path d="M34.98 27H32.1675V31H34.98V27Z" fill="#F2994A"/>
<path d="M40.2957 27H37.4832V31H40.2957V27Z" fill="#F2994A"/>
<path d="M34.98 18H32.1675V22H34.98V18Z" fill="#F2994A"/>
<path d="M40.2957 18H37.4832V22H40.2957V18Z" fill="#F2994A"/>
<path d="M40.2957 9H37.4832V13H40.2957V9Z" fill="#F2994A"/>
<path d="M19.4419 36H16.6294V40H19.4419V36Z" fill="#F2994A"/>
<path d="M24.7576 36H21.9451V40H24.7576V36Z" fill="#F2994A"/>
<path d="M19.4419 27H16.6294V31H19.4419V27Z" fill="#F2994A"/>
<path d="M24.7576 27H21.9451V31H24.7576V27Z" fill="#F2994A"/>
<path d="M24.7576 18H21.9451V22H24.7576V18Z" fill="#F2994A"/>
<path d="M45.4063 45.1875V0H37.5337L29.845 8.05434H21.996L11.5186 19.0303V45.1875H6.60938V42.2116C8.79712 41.5964 10.4062 39.5848 10.4062 37.2032C10.4062 34.3342 8.07216 32.0001 5.20312 32.0001C2.33409 32.0001 0 34.3341 0 37.2031C0 39.5848 1.60912 41.5964 3.79688 42.2115V45.1875H0V48H48V45.1875H45.4063ZM2.8125 37.2031C2.8125 35.8849 3.88491 34.8125 5.20312 34.8125C6.52134 34.8125 7.59375 35.8849 7.59375 37.2031C7.59375 38.5213 6.52134 39.5937 5.20312 39.5937C3.88491 39.5937 2.8125 38.5214 2.8125 37.2031ZM27.0563 45.1875H14.3311V20.1572L23.1995 10.8668H27.0563V45.1875ZM42.5938 45.1875H29.8688V12.1028L38.737 2.8125H42.5938V45.1875Z" fill="#F2994A"/>
</svg>
