<svg width="48" height="48" viewBox="0 0 48 48" fill="none" xmlns="http://www.w3.org/2000/svg">
<g clip-path="url(#clip0)">
<path d="M23.9999 15.848C21.1567 15.848 18.8435 18.1611 18.8435 21.0044C18.8435 23.3601 20.432 25.3504 22.5936 25.9643V42.0051C22.5936 42.7818 23.2233 43.4114 23.9999 43.4114C24.7766 43.4114 25.4062 42.7818 25.4062 42.0051V25.9643C27.5679 25.3505 29.1564 23.3601 29.1564 21.0044C29.1564 18.1611 26.8432 15.848 23.9999 15.848ZM23.9999 23.3482C22.7075 23.3482 21.6561 22.2968 21.6561 21.0044C21.6561 19.712 22.7075 18.6606 23.9999 18.6606C25.2923 18.6606 26.3438 19.712 26.3438 21.0044C26.3438 22.2968 25.2923 23.3482 23.9999 23.3482Z" fill="#2F80ED"/>
<path d="M17.4941 13.4859C16.945 12.9367 16.0547 12.9367 15.5054 13.4859C11.1454 17.8457 11.1447 24.9033 15.5054 29.2638C16.0547 29.813 16.9449 29.813 17.4941 29.2638C18.0434 28.7147 18.0434 27.8242 17.4941 27.275C14.2334 24.0143 14.2328 18.7359 17.4941 15.4747C18.0434 14.9255 18.0434 14.0351 17.4941 13.4859Z" fill="#2F80ED"/>
<path d="M32.4947 13.4859C31.9456 12.9368 31.0551 12.9368 30.5059 13.4859C29.9567 14.035 29.9567 14.9255 30.5059 15.4747C33.7592 18.7281 33.7592 24.0216 30.5059 27.275C29.9567 27.8241 29.9567 28.7146 30.5059 29.2638C31.0552 29.813 31.9455 29.813 32.4947 29.2638C36.8448 24.9139 36.8448 17.8358 32.4947 13.4859Z" fill="#2F80ED"/>
<path d="M13.2513 11.2319C13.8005 10.6828 13.8005 9.79234 13.2513 9.24313C12.7021 8.69402 11.8117 8.69402 11.2625 9.24313C4.57299 15.9326 4.57299 26.8171 11.2625 33.5066C11.8115 34.0557 12.702 34.056 13.2513 33.5066C13.8005 32.9575 13.8005 32.067 13.2513 31.5178C7.6585 25.9249 7.6585 16.8248 13.2513 11.2319Z" fill="#2F80ED"/>
<path d="M36.7374 9.24313C36.1882 8.69402 35.2978 8.69402 34.7486 9.24313C34.1994 9.79225 34.1994 10.6827 34.7486 11.2319C40.3413 16.8248 40.3413 25.9249 34.7486 31.5178C34.1994 32.0669 34.1994 32.9574 34.7486 33.5066C35.2979 34.0558 36.1882 34.0558 36.7374 33.5066C43.4269 26.8171 43.4269 15.9326 36.7374 9.24313Z" fill="#2F80ED"/>
<path d="M9.00851 6.98912C9.55772 6.44001 9.55772 5.54954 9.00851 5.00034C8.4594 4.45122 7.56893 4.45122 7.01972 5.00034C-2.35008 14.37 -2.32973 28.3999 7.01972 37.7494C7.56874 38.2985 8.45921 38.2988 9.00851 37.7494C9.55772 37.2003 9.55772 36.3098 9.00851 35.7606C0.807441 27.5593 0.807441 15.1904 9.00851 6.98912Z" fill="#2F80ED"/>
<path d="M40.9803 5.00034C40.4312 4.45122 39.5407 4.45122 38.9915 5.00034C38.4423 5.54945 38.4423 6.43992 38.9915 6.98912C47.1928 15.1904 47.1928 27.5593 38.9915 35.7606C38.4423 36.3097 38.4423 37.2002 38.9915 37.7494C39.5408 38.2986 40.4311 38.2986 40.9803 37.7494C50.35 28.3798 50.3298 14.3498 40.9803 5.00034Z" fill="#2F80ED"/>
</g>
<defs>
<clipPath id="clip0">
<rect width="48" height="48" fill="white"/>
</clipPath>
</defs>
</svg>
