<svg width="48" height="48" viewBox="0 0 48 48" fill="none" xmlns="http://www.w3.org/2000/svg">
<path d="M44.7216 18.0788C45.2201 16.7751 45.3248 15.3363 44.9995 13.959C44.615 12.3307 43.687 10.934 42.3511 9.94744C42.3605 8.06794 41.6277 6.27347 40.2732 4.91897C38.9242 3.57 37.1419 2.83641 35.2741 2.83641C35.2619 2.83641 35.2495 2.83641 35.2373 2.8365C33.9185 1.06753 31.8408 0 29.625 0C27.3274 0 25.2839 1.10794 24 2.81737C22.7161 1.10794 20.6726 0 18.375 0C16.1592 0 14.0815 1.06753 12.7628 2.8365C10.8779 2.82881 9.08456 3.56119 7.72678 4.91897C6.37228 6.27347 5.63963 8.06784 5.64891 9.94744C4.31297 10.934 3.38503 12.3307 3.00047 13.959C2.67516 15.3363 2.77978 16.7751 3.27844 18.0788C1.27003 19.347 0 21.5693 0 24C0 26.4307 1.26994 28.653 3.27844 29.9212C2.77988 31.2249 2.67516 32.6636 3.00038 34.0407C3.38494 35.6688 4.3125 37.0653 5.64797 38.0518C5.63616 39.7739 6.24422 41.4096 7.40419 42.7337C8.77031 44.2931 10.7187 45.1875 12.75 45.1875C12.7603 45.1875 12.7705 45.1875 12.7807 45.1874C14.1003 46.9421 16.1693 48 18.375 48C20.6726 48 22.7161 46.8921 24 45.1826C25.2839 46.8921 27.3274 48 29.625 48C31.8307 48 33.8997 46.9421 35.2193 45.1874C35.2295 45.1875 35.2397 45.1875 35.25 45.1875C37.2813 45.1875 39.2297 44.2931 40.5958 42.7337C41.7558 41.4096 42.3638 39.774 42.352 38.0518C43.6875 37.0653 44.6151 35.6688 44.9996 34.0407C45.3248 32.6636 45.2202 31.2249 44.7216 29.9212C46.7301 28.653 48 26.4307 48 24C48 21.5693 46.73 19.347 44.7216 18.0788ZM22.5938 14.1562H19.7812V11.3438H16.9688V16.9688H22.5938V22.5938H14.1562V19.7812H11.3438V28.2188H14.1562V25.4062H22.5938V32.4375H16.9688V38.0625H19.7812V35.25H22.5938V40.9688C22.5938 43.295 20.7012 45.1875 18.375 45.1875C16.8699 45.1875 15.4677 44.356 14.7157 43.0177L14.249 42.1871C12.7713 42.3866 12.8311 42.375 12.75 42.375C11.5292 42.375 10.3518 41.8302 9.51966 40.8803C8.69794 39.9424 8.33578 38.7446 8.49994 37.5078L8.62528 36.5634L7.79484 36.0968C6.73987 35.504 6.00919 34.5441 5.73759 33.3941C5.46863 32.2556 5.69081 31.0464 6.34706 30.0768L7.37063 28.5644L5.64694 27.9612C3.95156 27.3682 2.8125 25.7762 2.8125 24C2.8125 22.2238 3.95156 20.6318 5.64694 20.0386L7.37053 19.4354L6.34706 17.9231C5.69081 16.9535 5.46872 15.7443 5.73769 14.6055C6.00928 13.4557 6.73987 12.496 7.79484 11.9032L8.62528 11.4365L8.49994 10.4921C8.3235 9.16313 8.76666 7.85663 9.7155 6.90769C10.6674 5.95575 11.9756 5.511 13.3046 5.68734L14.249 5.81269L14.7157 4.98225C15.4677 3.64388 16.8699 2.8125 18.375 2.8125C20.7012 2.8125 22.5938 4.70503 22.5938 7.03125V14.1562ZM42.3532 27.9614L40.6295 28.5646L41.653 30.077C42.3093 31.0466 42.5315 32.2557 42.2625 33.3943C41.9909 34.5443 41.2603 35.5042 40.2052 36.0969L39.3748 36.5636L39.5002 37.508C39.6643 38.7447 39.3022 39.9425 38.4804 40.8805C37.6482 41.8302 36.4708 42.375 35.25 42.375C35.1511 42.375 35.1718 42.3789 33.751 42.1871L33.2843 43.0177C32.5323 44.356 31.1301 45.1875 29.625 45.1875C27.2988 45.1875 25.4062 43.295 25.4062 40.9688V35.25H28.2188V38.0625H31.0312V32.4375H25.4062V25.4062H33.8438V28.2188H36.6562V19.7812H33.8438V22.5938H25.4062V16.9688H31.0312V11.3438H28.2188V14.1562H25.4062V7.03125C25.4062 4.70503 27.2988 2.8125 29.625 2.8125C31.1301 2.8125 32.5323 3.64388 33.2843 4.98234L33.751 5.81278L34.6954 5.68744C36.0242 5.511 37.3326 5.95584 38.2845 6.90778C39.2334 7.85672 39.6765 9.16322 39.5001 10.4922L39.3747 11.4366L40.2052 11.9032C41.2601 12.496 41.9907 13.4557 42.2623 14.6056C42.5313 15.7444 42.3092 16.9536 41.6529 17.9232L40.6295 19.4356L42.3531 20.0388C44.0484 20.6318 45.1875 22.2238 45.1875 24C45.1875 25.7762 44.0484 27.3682 42.3532 27.9614Z" fill="#00C7BF"/>
</svg>
