<svg width="20" height="20" viewBox="0 0 20 20" fill="none" xmlns="http://www.w3.org/2000/svg">
<path d="M6.66667 10.8333H8.79167V8.33325H11.2083V10.8333H13.3333L10 14.1666L6.66667 10.8333ZM16.125 8.36658C18.2917 8.51658 20 10.2999 20 12.4999C20 13.0471 19.8922 13.5889 19.6828 14.0944C19.4734 14.6 19.1665 15.0593 18.7796 15.4462C18.3927 15.8331 17.9334 16.14 17.4278 16.3494C16.9223 16.5588 16.3805 16.6666 15.8333 16.6666H5C3.67392 16.6666 2.40215 16.1398 1.46447 15.2021C0.526784 14.2644 0 12.9927 0 11.6666C0 9.09158 1.95 6.96658 4.45833 6.69992C5.5 4.69992 7.59167 3.33325 10 3.33325C13.0333 3.33325 15.5583 5.49159 16.125 8.36658ZM15.8333 14.9999C16.4964 14.9999 17.1323 14.7365 17.6011 14.2677C18.0699 13.7988 18.3333 13.163 18.3333 12.4999C18.3333 11.2083 17.3167 10.1166 16.0167 10.0333L14.7417 9.94159L14.4917 8.69159C14.0667 6.54992 12.1833 4.99992 10 4.99992C8.28333 4.99992 6.73333 5.94992 5.94167 7.47492L5.525 8.26658L4.63333 8.35825C2.94167 8.53325 1.66667 9.95825 1.66667 11.6666C1.66667 12.5506 2.01786 13.3985 2.64298 14.0236C3.2681 14.6487 4.11594 14.9999 5 14.9999H15.8333Z" fill="black"/>
</svg>
