<svg width="95" height="95" viewBox="0 0 95 95" fill="none" xmlns="http://www.w3.org/2000/svg">
<g opacity="0.15">
<path d="M3.68608 95C5.72185 95 7.37217 93.2588 7.37217 91.1108C7.37217 88.9629 5.72185 87.2217 3.68608 87.2217C1.65032 87.2217 0 88.9629 0 91.1108C0 93.2588 1.65032 95 3.68608 95Z" fill="#616A63"/>
<path d="M3.68608 79.9347C5.58379 79.9347 7.12218 78.3115 7.12218 76.3093C7.12218 74.307 5.58379 72.6839 3.68608 72.6839C1.78838 72.6839 0.249987 74.307 0.249987 76.3093C0.249987 78.3115 1.78838 79.9347 3.68608 79.9347Z" fill="#616A63"/>
<path d="M3.68608 64.8745C5.44572 64.8745 6.87219 63.3695 6.87219 61.5129C6.87219 59.6563 5.44572 58.1512 3.68608 58.1512C1.92644 58.1512 0.499974 59.6563 0.499974 61.5129C0.499974 63.3695 1.92644 64.8745 3.68608 64.8745Z" fill="#616A63"/>
<path d="M3.68608 49.8092C5.30766 49.8092 6.62221 48.4222 6.62221 46.7113C6.62221 45.0004 5.30766 43.6134 3.68608 43.6134C2.06451 43.6134 0.749961 45.0004 0.749961 46.7113C0.749961 48.4222 2.06451 49.8092 3.68608 49.8092Z" fill="#616A63"/>
<path d="M3.68608 34.7439C5.1696 34.7439 6.37222 33.475 6.37222 31.9097C6.37222 30.3445 5.1696 29.0756 3.68608 29.0756C2.20257 29.0756 0.999948 30.3445 0.999948 31.9097C0.999948 33.475 2.20257 34.7439 3.68608 34.7439Z" fill="#616A63"/>
<path d="M3.68608 19.6837C5.03153 19.6837 6.12223 18.5329 6.12223 17.1133C6.12223 15.6938 5.03153 14.543 3.68608 14.543C2.34064 14.543 1.24994 15.6938 1.24994 17.1133C1.24994 18.5329 2.34064 19.6837 3.68608 19.6837Z" fill="#616A63"/>
<path d="M3.68608 4.62355C4.89618 4.62355 5.87715 3.58853 5.87715 2.31177C5.87715 1.03502 4.89618 0 3.68608 0C2.47599 0 1.49502 1.03502 1.49502 2.31177C1.49502 3.58853 2.47599 4.62355 3.68608 4.62355Z" fill="#616A63"/>
<path d="M16.2001 95C18.2359 95 19.8862 93.2588 19.8862 91.1108C19.8862 88.9629 18.2359 87.2217 16.2001 87.2217C14.1644 87.2217 12.5141 88.9629 12.5141 91.1108C12.5141 93.2588 14.1644 95 16.2001 95Z" fill="#616A63"/>
<path d="M16.2001 79.9347C18.0978 79.9347 19.6362 78.3115 19.6362 76.3093C19.6362 74.307 18.0978 72.6839 16.2001 72.6839C14.3024 72.6839 12.764 74.307 12.764 76.3093C12.764 78.3115 14.3024 79.9347 16.2001 79.9347Z" fill="#616A63"/>
<path d="M16.2001 64.8745C17.9598 64.8745 19.3863 63.3695 19.3863 61.5129C19.3863 59.6563 17.9598 58.1512 16.2001 58.1512C14.4405 58.1512 13.014 59.6563 13.014 61.5129C13.014 63.3695 14.4405 64.8745 16.2001 64.8745Z" fill="#616A63"/>
<path d="M16.2001 49.8092C17.8217 49.8092 19.1363 48.4222 19.1363 46.7113C19.1363 45.0004 17.8217 43.6134 16.2001 43.6134C14.5786 43.6134 13.264 45.0004 13.264 46.7113C13.264 48.4222 14.5786 49.8092 16.2001 49.8092Z" fill="#616A63"/>
<path d="M16.2001 34.7439C17.6837 34.7439 18.8863 33.475 18.8863 31.9097C18.8863 30.3445 17.6837 29.0756 16.2001 29.0756C14.7166 29.0756 13.514 30.3445 13.514 31.9097C13.514 33.475 14.7166 34.7439 16.2001 34.7439Z" fill="#616A63"/>
<path d="M16.2001 19.6837C17.5456 19.6837 18.6363 18.5329 18.6363 17.1133C18.6363 15.6938 17.5456 14.543 16.2001 14.543C14.8547 14.543 13.764 15.6938 13.764 17.1133C13.764 18.5329 14.8547 19.6837 16.2001 19.6837Z" fill="#616A63"/>
<path d="M16.2001 4.62355C17.4102 4.62355 18.3912 3.58853 18.3912 2.31177C18.3912 1.03502 17.4102 0 16.2001 0C14.9901 0 14.0091 1.03502 14.0091 2.31177C14.0091 3.58853 14.9901 4.62355 16.2001 4.62355Z" fill="#616A63"/>
<path d="M28.7191 95C30.7549 95 32.4052 93.2588 32.4052 91.1108C32.4052 88.9629 30.7549 87.2217 28.7191 87.2217C26.6833 87.2217 25.033 88.9629 25.033 91.1108C25.033 93.2588 26.6833 95 28.7191 95Z" fill="#616A63"/>
<path d="M28.7191 79.9347C30.6168 79.9347 32.1552 78.3115 32.1552 76.3093C32.1552 74.307 30.6168 72.6839 28.7191 72.6839C26.8214 72.6839 25.283 74.307 25.283 76.3093C25.283 78.3115 26.8214 79.9347 28.7191 79.9347Z" fill="#616A63"/>
<path d="M28.7191 64.8745C30.4787 64.8745 31.9052 63.3695 31.9052 61.5129C31.9052 59.6563 30.4787 58.1512 28.7191 58.1512C26.9595 58.1512 25.533 59.6563 25.533 61.5129C25.533 63.3695 26.9595 64.8745 28.7191 64.8745Z" fill="#616A63"/>
<path d="M28.7191 49.8092C30.3407 49.8092 31.6552 48.4222 31.6552 46.7113C31.6552 45.0004 30.3407 43.6134 28.7191 43.6134C27.0975 43.6134 25.783 45.0004 25.783 46.7113C25.783 48.4222 27.0975 49.8092 28.7191 49.8092Z" fill="#616A63"/>
<path d="M28.7191 34.7439C30.2026 34.7439 31.4052 33.475 31.4052 31.9097C31.4052 30.3445 30.2026 29.0756 28.7191 29.0756C27.2356 29.0756 26.033 30.3445 26.033 31.9097C26.033 33.475 27.2356 34.7439 28.7191 34.7439Z" fill="#616A63"/>
<path d="M28.7191 19.6837C30.0645 19.6837 31.1553 18.5329 31.1553 17.1133C31.1553 15.6938 30.0645 14.543 28.7191 14.543C27.3737 14.543 26.283 15.6938 26.283 17.1133C26.283 18.5329 27.3737 19.6837 28.7191 19.6837Z" fill="#616A63"/>
<path d="M28.7191 4.62355C29.9292 4.62355 30.9102 3.58853 30.9102 2.31177C30.9102 1.03502 29.9292 0 28.7191 0C27.509 0 26.528 1.03502 26.528 2.31177C26.528 3.58853 27.509 4.62355 28.7191 4.62355Z" fill="#616A63"/>
<path d="M41.2381 95C43.2738 95 44.9241 93.2588 44.9241 91.1108C44.9241 88.9629 43.2738 87.2217 41.2381 87.2217C39.2023 87.2217 37.552 88.9629 37.552 91.1108C37.552 93.2588 39.2023 95 41.2381 95Z" fill="#616A63"/>
<path d="M41.2381 79.9347C43.1358 79.9347 44.6742 78.3115 44.6742 76.3093C44.6742 74.307 43.1358 72.6839 41.2381 72.6839C39.3404 72.6839 37.802 74.307 37.802 76.3093C37.802 78.3115 39.3404 79.9347 41.2381 79.9347Z" fill="#616A63"/>
<path d="M41.2381 64.8745C42.9977 64.8745 44.4242 63.3695 44.4242 61.5129C44.4242 59.6563 42.9977 58.1512 41.2381 58.1512C39.4784 58.1512 38.052 59.6563 38.052 61.5129C38.052 63.3695 39.4784 64.8745 41.2381 64.8745Z" fill="#616A63"/>
<path d="M41.2381 49.8092C42.8596 49.8092 44.1742 48.4222 44.1742 46.7113C44.1742 45.0004 42.8596 43.6134 41.2381 43.6134C39.6165 43.6134 38.3019 45.0004 38.3019 46.7113C38.3019 48.4222 39.6165 49.8092 41.2381 49.8092Z" fill="#616A63"/>
<path d="M41.2381 34.7439C42.7216 34.7439 43.9242 33.475 43.9242 31.9097C43.9242 30.3445 42.7216 29.0756 41.2381 29.0756C39.7546 29.0756 38.5519 30.3445 38.5519 31.9097C38.5519 33.475 39.7546 34.7439 41.2381 34.7439Z" fill="#616A63"/>
<path d="M41.2381 19.6837C42.5835 19.6837 43.6742 18.5329 43.6742 17.1133C43.6742 15.6938 42.5835 14.543 41.2381 14.543C39.8926 14.543 38.8019 15.6938 38.8019 17.1133C38.8019 18.5329 39.8926 19.6837 41.2381 19.6837Z" fill="#616A63"/>
<path d="M41.2381 4.62355C42.4482 4.62355 43.4291 3.58853 43.4291 2.31177C43.4291 1.03502 42.4482 0 41.2381 0C40.028 0 39.047 1.03502 39.047 2.31177C39.047 3.58853 40.028 4.62355 41.2381 4.62355Z" fill="#616A63"/>
<path d="M53.757 95C55.7928 95 57.4431 93.2588 57.4431 91.1108C57.4431 88.9629 55.7928 87.2217 53.757 87.2217C51.7213 87.2217 50.0709 88.9629 50.0709 91.1108C50.0709 93.2588 51.7213 95 53.757 95Z" fill="#616A63"/>
<path d="M53.757 79.9347C55.6547 79.9347 57.1931 78.3115 57.1931 76.3093C57.1931 74.307 55.6547 72.6839 53.757 72.6839C51.8593 72.6839 50.3209 74.307 50.3209 76.3093C50.3209 78.3115 51.8593 79.9347 53.757 79.9347Z" fill="#616A63"/>
<path d="M53.757 64.8745C55.5167 64.8745 56.9431 63.3695 56.9431 61.5129C56.9431 59.6563 55.5167 58.1512 53.757 58.1512C51.9974 58.1512 50.5709 59.6563 50.5709 61.5129C50.5709 63.3695 51.9974 64.8745 53.757 64.8745Z" fill="#616A63"/>
<path d="M53.757 49.8092C55.3786 49.8092 56.6931 48.4222 56.6931 46.7113C56.6931 45.0004 55.3786 43.6134 53.757 43.6134C52.1355 43.6134 50.8209 45.0004 50.8209 46.7113C50.8209 48.4222 52.1355 49.8092 53.757 49.8092Z" fill="#616A63"/>
<path d="M53.757 34.7439C55.2405 34.7439 56.4432 33.475 56.4432 31.9097C56.4432 30.3445 55.2405 29.0756 53.757 29.0756C52.2735 29.0756 51.0709 30.3445 51.0709 31.9097C51.0709 33.475 52.2735 34.7439 53.757 34.7439Z" fill="#616A63"/>
<path d="M53.757 19.6837C55.1025 19.6837 56.1932 18.5329 56.1932 17.1133C56.1932 15.6938 55.1025 14.543 53.757 14.543C52.4116 14.543 51.3209 15.6938 51.3209 17.1133C51.3209 18.5329 52.4116 19.6837 53.757 19.6837Z" fill="#616A63"/>
<path d="M53.757 4.62355C54.9671 4.62355 55.9481 3.58853 55.9481 2.31177C55.9481 1.03502 54.9671 0 53.757 0C52.5469 0 51.566 1.03502 51.566 2.31177C51.566 3.58853 52.5469 4.62355 53.757 4.62355Z" fill="#616A63"/>
<path d="M66.276 95C68.3118 95 69.9621 93.2588 69.9621 91.1108C69.9621 88.9629 68.3118 87.2217 66.276 87.2217C64.2402 87.2217 62.5899 88.9629 62.5899 91.1108C62.5899 93.2588 64.2402 95 66.276 95Z" fill="#616A63"/>
<path d="M66.276 79.9347C68.1737 79.9347 69.7121 78.3115 69.7121 76.3093C69.7121 74.307 68.1737 72.6839 66.276 72.6839C64.3783 72.6839 62.8399 74.307 62.8399 76.3093C62.8399 78.3115 64.3783 79.9347 66.276 79.9347Z" fill="#616A63"/>
<path d="M66.276 64.8745C68.0356 64.8745 69.4621 63.3695 69.4621 61.5129C69.4621 59.6563 68.0356 58.1512 66.276 58.1512C64.5163 58.1512 63.0899 59.6563 63.0899 61.5129C63.0899 63.3695 64.5163 64.8745 66.276 64.8745Z" fill="#616A63"/>
<path d="M66.276 49.8092C67.8976 49.8092 69.2121 48.4222 69.2121 46.7113C69.2121 45.0004 67.8976 43.6134 66.276 43.6134C64.6544 43.6134 63.3399 45.0004 63.3399 46.7113C63.3399 48.4222 64.6544 49.8092 66.276 49.8092Z" fill="#616A63"/>
<path d="M66.276 34.7439C67.7595 34.7439 68.9621 33.475 68.9621 31.9097C68.9621 30.3445 67.7595 29.0756 66.276 29.0756C64.7925 29.0756 63.5899 30.3445 63.5899 31.9097C63.5899 33.475 64.7925 34.7439 66.276 34.7439Z" fill="#616A63"/>
<path d="M66.276 19.6837C67.6214 19.6837 68.7121 18.5329 68.7121 17.1133C68.7121 15.6938 67.6214 14.543 66.276 14.543C64.9305 14.543 63.8398 15.6938 63.8398 17.1133C63.8398 18.5329 64.9305 19.6837 66.276 19.6837Z" fill="#616A63"/>
<path d="M66.276 4.62355C67.4861 4.62355 68.467 3.58853 68.467 2.31177C68.467 1.03502 67.4861 0 66.276 0C65.0659 0 64.0849 1.03502 64.0849 2.31177C64.0849 3.58853 65.0659 4.62355 66.276 4.62355Z" fill="#616A63"/>
<path d="M78.795 95C80.8307 95 82.481 93.2588 82.481 91.1108C82.481 88.9629 80.8307 87.2217 78.795 87.2217C76.7592 87.2217 75.1089 88.9629 75.1089 91.1108C75.1089 93.2588 76.7592 95 78.795 95Z" fill="#616A63"/>
<path d="M78.795 79.9347C80.6927 79.9347 82.231 78.3115 82.231 76.3093C82.231 74.307 80.6927 72.6839 78.795 72.6839C76.8972 72.6839 75.3588 74.307 75.3588 76.3093C75.3588 78.3115 76.8972 79.9347 78.795 79.9347Z" fill="#616A63"/>
<path d="M78.795 64.8745C80.5546 64.8745 81.9811 63.3695 81.9811 61.5129C81.9811 59.6563 80.5546 58.1512 78.795 58.1512C77.0353 58.1512 75.6088 59.6563 75.6088 61.5129C75.6088 63.3695 77.0353 64.8745 78.795 64.8745Z" fill="#616A63"/>
<path d="M78.795 49.8092C80.4165 49.8092 81.7311 48.4222 81.7311 46.7113C81.7311 45.0004 80.4165 43.6134 78.795 43.6134C77.1734 43.6134 75.8588 45.0004 75.8588 46.7113C75.8588 48.4222 77.1734 49.8092 78.795 49.8092Z" fill="#616A63"/>
<path d="M78.795 34.7439C80.2785 34.7439 81.4811 33.475 81.4811 31.9097C81.4811 30.3445 80.2785 29.0756 78.795 29.0756C77.3114 29.0756 76.1088 30.3445 76.1088 31.9097C76.1088 33.475 77.3114 34.7439 78.795 34.7439Z" fill="#616A63"/>
<path d="M78.795 19.6837C80.1404 19.6837 81.2311 18.5329 81.2311 17.1133C81.2311 15.6938 80.1404 14.543 78.795 14.543C77.4495 14.543 76.3588 15.6938 76.3588 17.1133C76.3588 18.5329 77.4495 19.6837 78.795 19.6837Z" fill="#616A63"/>
<path d="M78.795 4.62355C80.005 4.62355 80.986 3.58853 80.986 2.31177C80.986 1.03502 80.005 0 78.795 0C77.5849 0 76.6039 1.03502 76.6039 2.31177C76.6039 3.58853 77.5849 4.62355 78.795 4.62355Z" fill="#616A63"/>
<path d="M91.3139 95C93.3497 95 95 93.2588 95 91.1108C95 88.9629 93.3497 87.2217 91.3139 87.2217C89.2781 87.2217 87.6278 88.9629 87.6278 91.1108C87.6278 93.2588 89.2781 95 91.3139 95Z" fill="#616A63"/>
<path d="M91.3139 79.9347C93.2116 79.9347 94.75 78.3115 94.75 76.3093C94.75 74.307 93.2116 72.6839 91.3139 72.6839C89.4162 72.6839 87.8778 74.307 87.8778 76.3093C87.8778 78.3115 89.4162 79.9347 91.3139 79.9347Z" fill="#616A63"/>
<path d="M91.3139 64.8745C93.0735 64.8745 94.5 63.3695 94.5 61.5129C94.5 59.6563 93.0735 58.1512 91.3139 58.1512C89.5543 58.1512 88.1278 59.6563 88.1278 61.5129C88.1278 63.3695 89.5543 64.8745 91.3139 64.8745Z" fill="#616A63"/>
<path d="M91.3139 49.8092C92.9355 49.8092 94.25 48.4222 94.25 46.7113C94.25 45.0004 92.9355 43.6134 91.3139 43.6134C89.6923 43.6134 88.3778 45.0004 88.3778 46.7113C88.3778 48.4222 89.6923 49.8092 91.3139 49.8092Z" fill="#616A63"/>
<path d="M91.3139 34.7439C92.7974 34.7439 94.0001 33.475 94.0001 31.9097C94.0001 30.3445 92.7974 29.0756 91.3139 29.0756C89.8304 29.0756 88.6278 30.3445 88.6278 31.9097C88.6278 33.475 89.8304 34.7439 91.3139 34.7439Z" fill="#616A63"/>
<path d="M91.3139 19.6837C92.6594 19.6837 93.7501 18.5329 93.7501 17.1133C93.7501 15.6938 92.6594 14.543 91.3139 14.543C89.9685 14.543 88.8778 15.6938 88.8778 17.1133C88.8778 18.5329 89.9685 19.6837 91.3139 19.6837Z" fill="#616A63"/>
<path d="M91.3139 4.62355C92.524 4.62355 93.505 3.58853 93.505 2.31177C93.505 1.03502 92.524 0 91.3139 0C90.1038 0 89.1228 1.03502 89.1228 2.31177C89.1228 3.58853 90.1038 4.62355 91.3139 4.62355Z" fill="#616A63"/>
</g>
</svg>
