<svg width="48" height="48" viewBox="0 0 48 48" fill="none" xmlns="http://www.w3.org/2000/svg">
<g clip-path="url(#clip0)">
<path d="M23.9999 0C14.918 0 7.5293 7.38871 7.5293 16.4706C7.5293 22.4477 10.7199 27.592 15.5293 30.4707V33.8824H12.7058V36.7059H15.5293V42.3529H18.3528V48H29.6469V42.3529H32.4705V36.7059H35.294V33.8824H32.4705V30.4707C37.2837 27.5897 40.4705 22.4431 40.4705 16.4706C40.4705 7.38871 33.0818 0 23.9999 0V0ZM26.8234 45.1765H21.1764V42.3529H26.8234V45.1765ZM29.6469 39.5294H18.3528V36.7059H29.6469V39.5294ZM18.3528 33.8824V31.0588H29.6469V33.8824H18.3528ZM19.935 15.8116L22.5881 12.4952V16.9412H25.4116V12.4952L28.0648 15.8116L25.8059 22.5882H22.194L19.935 15.8116ZM22.5881 25.4118H25.4116V28.2353H22.5881V25.4118ZM30.6946 28.2353H28.2352V24.2292L31.2291 15.2472L23.9999 6.21064L16.7706 15.2472L19.7646 24.2292V28.2353H17.3052C13.0085 25.8152 10.3528 21.339 10.3528 16.4706C10.3528 8.9456 16.4749 2.82353 23.9999 2.82353C31.5249 2.82353 37.6469 8.9456 37.6469 16.4706C37.6469 21.339 34.9912 25.8152 30.6946 28.2353Z" fill="#A03FC2"/>
<path d="M38.3555 3.24109L41.3498 0.246736L43.3461 2.24297L40.3517 5.23732L38.3555 3.24109Z" fill="#A03FC2"/>
<path d="M4.64502 31.6409L7.63931 28.6466L9.63554 30.6429L6.64126 33.6371L4.64502 31.6409Z" fill="#A03FC2"/>
<path d="M43.7646 15.5294H47.9999V18.353H43.7646V15.5294Z" fill="#A03FC2"/>
<path d="M0 15.5294H4.23529V18.353H0V15.5294Z" fill="#A03FC2"/>
<path d="M38.3525 30.6464L40.3488 28.6501L43.3431 31.6444L41.3468 33.6406L38.3525 30.6464Z" fill="#A03FC2"/>
<path d="M4.64795 2.23914L6.64418 0.2429L9.63854 3.23725L7.6423 5.23349L4.64795 2.23914Z" fill="#A03FC2"/>
</g>
<defs>
<clipPath id="clip0">
<rect width="48" height="48" fill="white"/>
</clipPath>
</defs>
</svg>
