<svg width="130" height="201" viewBox="0 0 130 201" fill="none" xmlns="http://www.w3.org/2000/svg">
<g opacity="0.15">
<path d="M7.64377 201C11.8653 201 15.2875 197.316 15.2875 192.771C15.2875 188.227 11.8653 184.543 7.64377 184.543C3.42223 184.543 0 188.227 0 192.771C0 197.316 3.42223 201 7.64377 201Z" fill="#A0A0A0"/>
<path d="M7.64377 169.125C11.579 169.125 14.7692 165.691 14.7692 161.454C14.7692 157.218 11.579 153.784 7.64377 153.784C3.70854 153.784 0.518394 157.218 0.518394 161.454C0.518394 165.691 3.70854 169.125 7.64377 169.125Z" fill="#A0A0A0"/>
<path d="M7.64377 137.261C11.2927 137.261 14.2508 134.076 14.2508 130.148C14.2508 126.22 11.2927 123.036 7.64377 123.036C3.99484 123.036 1.03679 126.22 1.03679 130.148C1.03679 134.076 3.99484 137.261 7.64377 137.261Z" fill="#A0A0A0"/>
<path d="M7.64377 105.386C11.0064 105.386 13.7324 102.451 13.7324 98.8313C13.7324 95.2113 11.0064 92.2768 7.64377 92.2768C4.28114 92.2768 1.55518 95.2113 1.55518 98.8313C1.55518 102.451 4.28114 105.386 7.64377 105.386Z" fill="#A0A0A0"/>
<path d="M7.64377 73.5107C10.7201 73.5107 13.214 70.826 13.214 67.5143C13.214 64.2026 10.7201 61.5179 7.64377 61.5179C4.56744 61.5179 2.07358 64.2026 2.07358 67.5143C2.07358 70.826 4.56744 73.5107 7.64377 73.5107Z" fill="#A0A0A0"/>
<path d="M7.64377 41.6466C10.4338 41.6466 12.6956 39.2117 12.6956 36.2082C12.6956 33.2047 10.4338 30.7699 7.64377 30.7699C4.85374 30.7699 2.59197 33.2047 2.59197 36.2082C2.59197 39.2117 4.85374 41.6466 7.64377 41.6466Z" fill="#A0A0A0"/>
<path d="M7.64377 9.78246C10.1531 9.78246 12.1873 7.59258 12.1873 4.89123C12.1873 2.18988 10.1531 0 7.64377 0C5.13443 0 3.1002 2.18988 3.1002 4.89123C3.1002 7.59258 5.13443 9.78246 7.64377 9.78246Z" fill="#A0A0A0"/>
<path d="M33.594 201C37.8155 201 41.2378 197.316 41.2378 192.771C41.2378 188.227 37.8155 184.543 33.594 184.543C29.3724 184.543 25.9502 188.227 25.9502 192.771C25.9502 197.316 29.3724 201 33.594 201Z" fill="#A0A0A0"/>
<path d="M33.594 169.125C37.5292 169.125 40.7194 165.691 40.7194 161.454C40.7194 157.218 37.5292 153.784 33.594 153.784C29.6587 153.784 26.4686 157.218 26.4686 161.454C26.4686 165.691 29.6587 169.125 33.594 169.125Z" fill="#A0A0A0"/>
<path d="M33.594 137.261C37.2429 137.261 40.201 134.076 40.201 130.148C40.201 126.22 37.2429 123.036 33.594 123.036C29.945 123.036 26.987 126.22 26.987 130.148C26.987 134.076 29.945 137.261 33.594 137.261Z" fill="#A0A0A0"/>
<path d="M33.594 105.386C36.9566 105.386 39.6826 102.451 39.6826 98.8313C39.6826 95.2113 36.9566 92.2768 33.594 92.2768C30.2313 92.2768 27.5054 95.2113 27.5054 98.8313C27.5054 102.451 30.2313 105.386 33.594 105.386Z" fill="#A0A0A0"/>
<path d="M33.594 73.5107C36.6703 73.5107 39.1642 70.826 39.1642 67.5143C39.1642 64.2026 36.6703 61.5179 33.594 61.5179C30.5176 61.5179 28.0238 64.2026 28.0238 67.5143C28.0238 70.826 30.5176 73.5107 33.594 73.5107Z" fill="#A0A0A0"/>
<path d="M33.594 41.6466C36.384 41.6466 38.6458 39.2117 38.6458 36.2082C38.6458 33.2047 36.384 30.7699 33.594 30.7699C30.8039 30.7699 28.5422 33.2047 28.5422 36.2082C28.5422 39.2117 30.8039 41.6466 33.594 41.6466Z" fill="#A0A0A0"/>
<path d="M33.594 9.78246C36.1033 9.78246 38.1376 7.59258 38.1376 4.89123C38.1376 2.18988 36.1033 0 33.594 0C31.0846 0 29.0504 2.18988 29.0504 4.89123C29.0504 7.59258 31.0846 9.78246 33.594 9.78246Z" fill="#A0A0A0"/>
<path d="M59.5543 201C63.7759 201 67.1981 197.316 67.1981 192.771C67.1981 188.227 63.7759 184.543 59.5543 184.543C55.3328 184.543 51.9106 188.227 51.9106 192.771C51.9106 197.316 55.3328 201 59.5543 201Z" fill="#A0A0A0"/>
<path d="M59.5543 169.125C63.4896 169.125 66.6797 165.691 66.6797 161.454C66.6797 157.218 63.4896 153.784 59.5543 153.784C55.6191 153.784 52.429 157.218 52.429 161.454C52.429 165.691 55.6191 169.125 59.5543 169.125Z" fill="#A0A0A0"/>
<path d="M59.5543 137.261C63.2033 137.261 66.1613 134.076 66.1613 130.148C66.1613 126.22 63.2033 123.036 59.5543 123.036C55.9054 123.036 52.9474 126.22 52.9474 130.148C52.9474 134.076 55.9054 137.261 59.5543 137.261Z" fill="#A0A0A0"/>
<path d="M59.5543 105.386C62.917 105.386 65.6429 102.451 65.6429 98.8313C65.6429 95.2113 62.917 92.2768 59.5543 92.2768C56.1917 92.2768 53.4658 95.2113 53.4658 98.8313C53.4658 102.451 56.1917 105.386 59.5543 105.386Z" fill="#A0A0A0"/>
<path d="M59.5543 73.5107C62.6307 73.5107 65.1245 70.826 65.1245 67.5143C65.1245 64.2026 62.6307 61.5179 59.5543 61.5179C56.478 61.5179 53.9842 64.2026 53.9842 67.5143C53.9842 70.826 56.478 73.5107 59.5543 73.5107Z" fill="#A0A0A0"/>
<path d="M59.5543 41.6466C62.3444 41.6466 64.6062 39.2117 64.6062 36.2082C64.6062 33.2047 62.3444 30.7699 59.5543 30.7699C56.7643 30.7699 54.5026 33.2047 54.5026 36.2082C54.5026 39.2117 56.7643 41.6466 59.5543 41.6466Z" fill="#A0A0A0"/>
<path d="M59.5543 9.78246C62.0637 9.78246 64.0979 7.59258 64.0979 4.89123C64.0979 2.18988 62.0637 0 59.5543 0C57.045 0 55.0108 2.18988 55.0108 4.89123C55.0108 7.59258 57.045 9.78246 59.5543 9.78246Z" fill="#A0A0A0"/>
<path d="M85.5147 201C89.7363 201 93.1585 197.316 93.1585 192.771C93.1585 188.227 89.7363 184.543 85.5147 184.543C81.2932 184.543 77.871 188.227 77.871 192.771C77.871 197.316 81.2932 201 85.5147 201Z" fill="#A0A0A0"/>
<path d="M85.5147 169.125C89.45 169.125 92.6401 165.691 92.6401 161.454C92.6401 157.218 89.45 153.784 85.5147 153.784C81.5795 153.784 78.3894 157.218 78.3894 161.454C78.3894 165.691 81.5795 169.125 85.5147 169.125Z" fill="#A0A0A0"/>
<path d="M85.5147 137.261C89.1637 137.261 92.1217 134.076 92.1217 130.148C92.1217 126.22 89.1637 123.036 85.5147 123.036C81.8658 123.036 78.9077 126.22 78.9077 130.148C78.9077 134.076 81.8658 137.261 85.5147 137.261Z" fill="#A0A0A0"/>
<path d="M85.5147 105.386C88.8774 105.386 91.6033 102.451 91.6033 98.8313C91.6033 95.2113 88.8774 92.2768 85.5147 92.2768C82.1521 92.2768 79.4261 95.2113 79.4261 98.8313C79.4261 102.451 82.1521 105.386 85.5147 105.386Z" fill="#A0A0A0"/>
<path d="M85.5147 73.5107C88.5911 73.5107 91.0849 70.826 91.0849 67.5143C91.0849 64.2026 88.5911 61.5179 85.5147 61.5179C82.4384 61.5179 79.9445 64.2026 79.9445 67.5143C79.9445 70.826 82.4384 73.5107 85.5147 73.5107Z" fill="#A0A0A0"/>
<path d="M85.5147 41.6466C88.3048 41.6466 90.5665 39.2117 90.5665 36.2082C90.5665 33.2047 88.3048 30.7699 85.5147 30.7699C82.7247 30.7699 80.4629 33.2047 80.4629 36.2082C80.4629 39.2117 82.7247 41.6466 85.5147 41.6466Z" fill="#A0A0A0"/>
<path d="M85.5147 9.78246C88.0241 9.78246 90.0583 7.59258 90.0583 4.89123C90.0583 2.18988 88.0241 0 85.5147 0C83.0054 0 80.9712 2.18988 80.9712 4.89123C80.9712 7.59258 83.0054 9.78246 85.5147 9.78246Z" fill="#A0A0A0"/>
<path d="M111.475 201C115.697 201 119.119 197.316 119.119 192.771C119.119 188.227 115.697 184.543 111.475 184.543C107.254 184.543 103.831 188.227 103.831 192.771C103.831 197.316 107.254 201 111.475 201Z" fill="#A0A0A0"/>
<path d="M111.475 169.125C115.41 169.125 118.6 165.691 118.6 161.454C118.6 157.218 115.41 153.784 111.475 153.784C107.54 153.784 104.35 157.218 104.35 161.454C104.35 165.691 107.54 169.125 111.475 169.125Z" fill="#A0A0A0"/>
<path d="M111.475 137.261C115.124 137.261 118.082 134.076 118.082 130.148C118.082 126.22 115.124 123.036 111.475 123.036C107.826 123.036 104.868 126.22 104.868 130.148C104.868 134.076 107.826 137.261 111.475 137.261Z" fill="#A0A0A0"/>
<path d="M111.475 105.386C114.838 105.386 117.564 102.451 117.564 98.8313C117.564 95.2113 114.838 92.2768 111.475 92.2768C108.112 92.2768 105.387 95.2113 105.387 98.8313C105.387 102.451 108.112 105.386 111.475 105.386Z" fill="#A0A0A0"/>
<path d="M111.475 73.5107C114.551 73.5107 117.045 70.826 117.045 67.5143C117.045 64.2026 114.551 61.5179 111.475 61.5179C108.399 61.5179 105.905 64.2026 105.905 67.5143C105.905 70.826 108.399 73.5107 111.475 73.5107Z" fill="#A0A0A0"/>
<path d="M111.475 41.6466C114.265 41.6466 116.527 39.2117 116.527 36.2082C116.527 33.2047 114.265 30.7699 111.475 30.7699C108.685 30.7699 106.423 33.2047 106.423 36.2082C106.423 39.2117 108.685 41.6466 111.475 41.6466Z" fill="#A0A0A0"/>
<path d="M111.475 9.78246C113.984 9.78246 116.019 7.59258 116.019 4.89123C116.019 2.18988 113.984 0 111.475 0C108.966 0 106.932 2.18988 106.932 4.89123C106.932 7.59258 108.966 9.78246 111.475 9.78246Z" fill="#A0A0A0"/>
<path d="M137.435 201C141.657 201 145.079 197.316 145.079 192.771C145.079 188.227 141.657 184.543 137.435 184.543C133.214 184.543 129.792 188.227 129.792 192.771C129.792 197.316 133.214 201 137.435 201Z" fill="#A0A0A0"/>
<path d="M137.435 169.125C141.371 169.125 144.561 165.691 144.561 161.454C144.561 157.218 141.371 153.784 137.435 153.784C133.5 153.784 130.31 157.218 130.31 161.454C130.31 165.691 133.5 169.125 137.435 169.125Z" fill="#A0A0A0"/>
<path d="M137.435 137.261C141.084 137.261 144.042 134.076 144.042 130.148C144.042 126.22 141.084 123.036 137.435 123.036C133.787 123.036 130.828 126.22 130.828 130.148C130.828 134.076 133.787 137.261 137.435 137.261Z" fill="#A0A0A0"/>
<path d="M137.435 105.386C140.798 105.386 143.524 102.451 143.524 98.8313C143.524 95.2113 140.798 92.2768 137.435 92.2768C134.073 92.2768 131.347 95.2113 131.347 98.8313C131.347 102.451 134.073 105.386 137.435 105.386Z" fill="#A0A0A0"/>
<path d="M137.435 73.5107C140.512 73.5107 143.006 70.826 143.006 67.5143C143.006 64.2026 140.512 61.5179 137.435 61.5179C134.359 61.5179 131.865 64.2026 131.865 67.5143C131.865 70.826 134.359 73.5107 137.435 73.5107Z" fill="#A0A0A0"/>
<path d="M137.435 41.6466C140.226 41.6466 142.487 39.2117 142.487 36.2082C142.487 33.2047 140.226 30.7699 137.435 30.7699C134.645 30.7699 132.384 33.2047 132.384 36.2082C132.384 39.2117 134.645 41.6466 137.435 41.6466Z" fill="#A0A0A0"/>
<path d="M137.435 9.78246C139.945 9.78246 141.979 7.59258 141.979 4.89123C141.979 2.18988 139.945 0 137.435 0C134.926 0 132.892 2.18988 132.892 4.89123C132.892 7.59258 134.926 9.78246 137.435 9.78246Z" fill="#A0A0A0"/>
<path d="M163.396 201C167.617 201 171.04 197.316 171.04 192.771C171.04 188.227 167.617 184.543 163.396 184.543C159.174 184.543 155.752 188.227 155.752 192.771C155.752 197.316 159.174 201 163.396 201Z" fill="#A0A0A0"/>
<path d="M163.396 169.125C167.331 169.125 170.521 165.691 170.521 161.454C170.521 157.218 167.331 153.784 163.396 153.784C159.461 153.784 156.27 157.218 156.27 161.454C156.27 165.691 159.461 169.125 163.396 169.125Z" fill="#A0A0A0"/>
<path d="M163.396 137.261C167.045 137.261 170.003 134.076 170.003 130.148C170.003 126.22 167.045 123.036 163.396 123.036C159.747 123.036 156.789 126.22 156.789 130.148C156.789 134.076 159.747 137.261 163.396 137.261Z" fill="#A0A0A0"/>
<path d="M163.396 105.386C166.758 105.386 169.484 102.451 169.484 98.8313C169.484 95.2113 166.758 92.2768 163.396 92.2768C160.033 92.2768 157.307 95.2113 157.307 98.8313C157.307 102.451 160.033 105.386 163.396 105.386Z" fill="#A0A0A0"/>
<path d="M163.396 73.5107C166.472 73.5107 168.966 70.826 168.966 67.5143C168.966 64.2026 166.472 61.5179 163.396 61.5179C160.32 61.5179 157.826 64.2026 157.826 67.5143C157.826 70.826 160.32 73.5107 163.396 73.5107Z" fill="#A0A0A0"/>
<path d="M163.396 41.6466C166.186 41.6466 168.448 39.2117 168.448 36.2082C168.448 33.2047 166.186 30.7699 163.396 30.7699C160.606 30.7699 158.344 33.2047 158.344 36.2082C158.344 39.2117 160.606 41.6466 163.396 41.6466Z" fill="#A0A0A0"/>
<path d="M163.396 9.78246C165.905 9.78246 167.939 7.59258 167.939 4.89123C167.939 2.18988 165.905 0 163.396 0C160.886 0 158.852 2.18988 158.852 4.89123C158.852 7.59258 160.886 9.78246 163.396 9.78246Z" fill="#A0A0A0"/>
<path d="M189.356 201C193.578 201 197 197.316 197 192.771C197 188.227 193.578 184.543 189.356 184.543C185.135 184.543 181.712 188.227 181.712 192.771C181.712 197.316 185.135 201 189.356 201Z" fill="#A0A0A0"/>
<path d="M189.356 169.125C193.291 169.125 196.482 165.691 196.482 161.454C196.482 157.218 193.291 153.784 189.356 153.784C185.421 153.784 182.231 157.218 182.231 161.454C182.231 165.691 185.421 169.125 189.356 169.125Z" fill="#A0A0A0"/>
<path d="M189.356 137.261C193.005 137.261 195.963 134.076 195.963 130.148C195.963 126.22 193.005 123.036 189.356 123.036C185.707 123.036 182.749 126.22 182.749 130.148C182.749 134.076 185.707 137.261 189.356 137.261Z" fill="#A0A0A0"/>
<path d="M189.356 105.386C192.719 105.386 195.445 102.451 195.445 98.8313C195.445 95.2113 192.719 92.2768 189.356 92.2768C185.994 92.2768 183.268 95.2113 183.268 98.8313C183.268 102.451 185.994 105.386 189.356 105.386Z" fill="#A0A0A0"/>
<path d="M189.356 73.5107C192.433 73.5107 194.926 70.826 194.926 67.5143C194.926 64.2026 192.433 61.5179 189.356 61.5179C186.28 61.5179 183.786 64.2026 183.786 67.5143C183.786 70.826 186.28 73.5107 189.356 73.5107Z" fill="#A0A0A0"/>
<path d="M189.356 41.6466C192.146 41.6466 194.408 39.2117 194.408 36.2082C194.408 33.2047 192.146 30.7699 189.356 30.7699C186.566 30.7699 184.304 33.2047 184.304 36.2082C184.304 39.2117 186.566 41.6466 189.356 41.6466Z" fill="#A0A0A0"/>
<path d="M189.356 9.78246C191.866 9.78246 193.9 7.59258 193.9 4.89123C193.9 2.18988 191.866 0 189.356 0C186.847 0 184.813 2.18988 184.813 4.89123C184.813 7.59258 186.847 9.78246 189.356 9.78246Z" fill="#A0A0A0"/>
</g>
</svg>
