<svg width="302" height="302" viewBox="0 0 302 302" fill="none" xmlns="http://www.w3.org/2000/svg">
<g opacity="0.15">
<path d="M11.7179 302C18.1895 302 23.4357 296.465 23.4357 289.637C23.4357 282.808 18.1895 277.273 11.7179 277.273C5.24627 277.273 0 282.808 0 289.637C0 296.465 5.24627 302 11.7179 302Z" fill="#616A63"/>
<path d="M11.7179 254.108C17.7506 254.108 22.641 248.948 22.641 242.583C22.641 236.218 17.7506 231.058 11.7179 231.058C5.68517 231.058 0.794696 236.218 0.794696 242.583C0.794696 248.948 5.68517 254.108 11.7179 254.108Z" fill="#616A63"/>
<path d="M11.7179 206.233C17.3117 206.233 21.8463 201.448 21.8463 195.546C21.8463 189.644 17.3117 184.86 11.7179 184.86C6.12406 184.86 1.58939 189.644 1.58939 195.546C1.58939 201.448 6.12406 206.233 11.7179 206.233Z" fill="#616A63"/>
<path d="M11.7179 158.341C16.8728 158.341 21.0516 153.932 21.0516 148.493C21.0516 143.054 16.8728 138.645 11.7179 138.645C6.56296 138.645 2.38409 143.054 2.38409 148.493C2.38409 153.932 6.56296 158.341 11.7179 158.341Z" fill="#616A63"/>
<path d="M11.7179 110.449C16.4339 110.449 20.257 106.415 20.257 101.439C20.257 96.4636 16.4339 92.4298 11.7179 92.4298C7.00186 92.4298 3.17878 96.4636 3.17878 101.439C3.17878 106.415 7.00186 110.449 11.7179 110.449Z" fill="#616A63"/>
<path d="M11.7179 62.5735C15.995 62.5735 19.4623 58.9152 19.4623 54.4024C19.4623 49.8897 15.995 46.2314 11.7179 46.2314C7.44076 46.2314 3.97348 49.8897 3.97348 54.4024C3.97348 58.9152 7.44076 62.5735 11.7179 62.5735Z" fill="#616A63"/>
<path d="M11.7179 14.698C15.5647 14.698 18.6831 11.4078 18.6831 7.34901C18.6831 3.29026 15.5647 0 11.7179 0C7.87105 0 4.75259 3.29026 4.75259 7.34901C4.75259 11.4078 7.87105 14.698 11.7179 14.698Z" fill="#616A63"/>
<path d="M51.4994 302C57.971 302 63.2173 296.465 63.2173 289.637C63.2173 282.808 57.971 277.273 51.4994 277.273C45.0278 277.273 39.7815 282.808 39.7815 289.637C39.7815 296.465 45.0278 302 51.4994 302Z" fill="#616A63"/>
<path d="M51.4994 254.108C57.5321 254.108 62.4226 248.948 62.4226 242.583C62.4226 236.218 57.5321 231.058 51.4994 231.058C45.4667 231.058 40.5762 236.218 40.5762 242.583C40.5762 248.948 45.4667 254.108 51.4994 254.108Z" fill="#616A63"/>
<path d="M51.4994 206.233C57.0932 206.233 61.6279 201.448 61.6279 195.546C61.6279 189.644 57.0932 184.86 51.4994 184.86C45.9056 184.86 41.3709 189.644 41.3709 195.546C41.3709 201.448 45.9056 206.233 51.4994 206.233Z" fill="#616A63"/>
<path d="M51.4994 158.341C56.6543 158.341 60.8332 153.932 60.8332 148.493C60.8332 143.054 56.6543 138.645 51.4994 138.645C46.3445 138.645 42.1656 143.054 42.1656 148.493C42.1656 153.932 46.3445 158.341 51.4994 158.341Z" fill="#616A63"/>
<path d="M51.4994 110.449C56.2154 110.449 60.0385 106.415 60.0385 101.439C60.0385 96.4636 56.2154 92.4298 51.4994 92.4298C46.7834 92.4298 42.9603 96.4636 42.9603 101.439C42.9603 106.415 46.7834 110.449 51.4994 110.449Z" fill="#616A63"/>
<path d="M51.4994 62.5735C55.7765 62.5735 59.2438 58.9152 59.2438 54.4024C59.2438 49.8897 55.7765 46.2314 51.4994 46.2314C47.2223 46.2314 43.755 49.8897 43.755 54.4024C43.755 58.9152 47.2223 62.5735 51.4994 62.5735Z" fill="#616A63"/>
<path d="M51.4994 14.698C55.3462 14.698 58.4647 11.4078 58.4647 7.34901C58.4647 3.29026 55.3462 0 51.4994 0C47.6526 0 44.5341 3.29026 44.5341 7.34901C44.5341 11.4078 47.6526 14.698 51.4994 14.698Z" fill="#616A63"/>
<path d="M91.2965 302C97.7681 302 103.014 296.465 103.014 289.637C103.014 282.808 97.7681 277.273 91.2965 277.273C84.8249 277.273 79.5787 282.808 79.5787 289.637C79.5787 296.465 84.8249 302 91.2965 302Z" fill="#616A63"/>
<path d="M91.2965 254.108C97.3292 254.108 102.22 248.948 102.22 242.583C102.22 236.218 97.3292 231.058 91.2965 231.058C85.2638 231.058 80.3734 236.218 80.3734 242.583C80.3734 248.948 85.2638 254.108 91.2965 254.108Z" fill="#616A63"/>
<path d="M91.2965 206.233C96.8903 206.233 101.425 201.448 101.425 195.546C101.425 189.644 96.8903 184.86 91.2965 184.86C85.7027 184.86 81.1681 189.644 81.1681 195.546C81.1681 201.448 85.7027 206.233 91.2965 206.233Z" fill="#616A63"/>
<path d="M91.2965 158.341C96.4514 158.341 100.63 153.932 100.63 148.493C100.63 143.054 96.4514 138.645 91.2965 138.645C86.1416 138.645 81.9627 143.054 81.9627 148.493C81.9627 153.932 86.1416 158.341 91.2965 158.341Z" fill="#616A63"/>
<path d="M91.2965 110.449C96.0125 110.449 99.8356 106.415 99.8356 101.439C99.8356 96.4636 96.0125 92.4298 91.2965 92.4298C86.5805 92.4298 82.7574 96.4636 82.7574 101.439C82.7574 106.415 86.5805 110.449 91.2965 110.449Z" fill="#616A63"/>
<path d="M91.2965 62.5735C95.5736 62.5735 99.0409 58.9152 99.0409 54.4024C99.0409 49.8897 95.5736 46.2314 91.2965 46.2314C87.0194 46.2314 83.5521 49.8897 83.5521 54.4024C83.5521 58.9152 87.0194 62.5735 91.2965 62.5735Z" fill="#616A63"/>
<path d="M91.2965 14.698C95.1433 14.698 98.2618 11.4078 98.2618 7.34901C98.2618 3.29026 95.1433 0 91.2965 0C87.4497 0 84.3313 3.29026 84.3313 7.34901C84.3313 11.4078 87.4497 14.698 91.2965 14.698Z" fill="#616A63"/>
<path d="M131.094 302C137.565 302 142.812 296.465 142.812 289.637C142.812 282.808 137.565 277.273 131.094 277.273C124.622 277.273 119.376 282.808 119.376 289.637C119.376 296.465 124.622 302 131.094 302Z" fill="#616A63"/>
<path d="M131.094 254.108C137.126 254.108 142.017 248.948 142.017 242.583C142.017 236.218 137.126 231.058 131.094 231.058C125.061 231.058 120.17 236.218 120.17 242.583C120.17 248.948 125.061 254.108 131.094 254.108Z" fill="#616A63"/>
<path d="M131.094 206.233C136.687 206.233 141.222 201.448 141.222 195.546C141.222 189.644 136.687 184.86 131.094 184.86C125.5 184.86 120.965 189.644 120.965 195.546C120.965 201.448 125.5 206.233 131.094 206.233Z" fill="#616A63"/>
<path d="M131.094 158.341C136.249 158.341 140.427 153.932 140.427 148.493C140.427 143.054 136.249 138.645 131.094 138.645C125.939 138.645 121.76 143.054 121.76 148.493C121.76 153.932 125.939 158.341 131.094 158.341Z" fill="#616A63"/>
<path d="M131.094 110.449C135.81 110.449 139.633 106.415 139.633 101.439C139.633 96.4636 135.81 92.4298 131.094 92.4298C126.378 92.4298 122.555 96.4636 122.555 101.439C122.555 106.415 126.378 110.449 131.094 110.449Z" fill="#616A63"/>
<path d="M131.094 62.5735C135.371 62.5735 138.838 58.9152 138.838 54.4024C138.838 49.8897 135.371 46.2314 131.094 46.2314C126.817 46.2314 123.349 49.8897 123.349 54.4024C123.349 58.9152 126.817 62.5735 131.094 62.5735Z" fill="#616A63"/>
<path d="M131.094 14.698C134.94 14.698 138.059 11.4078 138.059 7.34901C138.059 3.29026 134.94 0 131.094 0C127.247 0 124.128 3.29026 124.128 7.34901C124.128 11.4078 127.247 14.698 131.094 14.698Z" fill="#616A63"/>
<path d="M170.891 302C177.362 302 182.609 296.465 182.609 289.637C182.609 282.808 177.362 277.273 170.891 277.273C164.419 277.273 159.173 282.808 159.173 289.637C159.173 296.465 164.419 302 170.891 302Z" fill="#616A63"/>
<path d="M170.891 254.108C176.923 254.108 181.814 248.948 181.814 242.583C181.814 236.218 176.923 231.058 170.891 231.058C164.858 231.058 159.968 236.218 159.968 242.583C159.968 248.948 164.858 254.108 170.891 254.108Z" fill="#616A63"/>
<path d="M170.891 206.233C176.485 206.233 181.019 201.448 181.019 195.546C181.019 189.644 176.485 184.86 170.891 184.86C165.297 184.86 160.762 189.644 160.762 195.546C160.762 201.448 165.297 206.233 170.891 206.233Z" fill="#616A63"/>
<path d="M170.891 158.341C176.046 158.341 180.225 153.932 180.225 148.493C180.225 143.054 176.046 138.645 170.891 138.645C165.736 138.645 161.557 143.054 161.557 148.493C161.557 153.932 165.736 158.341 170.891 158.341Z" fill="#616A63"/>
<path d="M170.891 110.449C175.607 110.449 179.43 106.415 179.43 101.439C179.43 96.4636 175.607 92.4298 170.891 92.4298C166.175 92.4298 162.352 96.4636 162.352 101.439C162.352 106.415 166.175 110.449 170.891 110.449Z" fill="#616A63"/>
<path d="M170.891 62.5735C175.168 62.5735 178.635 58.9152 178.635 54.4024C178.635 49.8897 175.168 46.2314 170.891 46.2314C166.614 46.2314 163.146 49.8897 163.146 54.4024C163.146 58.9152 166.614 62.5735 170.891 62.5735Z" fill="#616A63"/>
<path d="M170.891 14.698C174.738 14.698 177.856 11.4078 177.856 7.34901C177.856 3.29026 174.738 0 170.891 0C167.044 0 163.925 3.29026 163.925 7.34901C163.925 11.4078 167.044 14.698 170.891 14.698Z" fill="#616A63"/>
<path d="M210.688 302C217.159 302 222.406 296.465 222.406 289.637C222.406 282.808 217.159 277.273 210.688 277.273C204.216 277.273 198.97 282.808 198.97 289.637C198.97 296.465 204.216 302 210.688 302Z" fill="#616A63"/>
<path d="M210.688 254.108C216.721 254.108 221.611 248.948 221.611 242.583C221.611 236.218 216.721 231.058 210.688 231.058C204.655 231.058 199.765 236.218 199.765 242.583C199.765 248.948 204.655 254.108 210.688 254.108Z" fill="#616A63"/>
<path d="M210.688 206.233C216.282 206.233 220.816 201.448 220.816 195.546C220.816 189.644 216.282 184.86 210.688 184.86C205.094 184.86 200.559 189.644 200.559 195.546C200.559 201.448 205.094 206.233 210.688 206.233Z" fill="#616A63"/>
<path d="M210.688 158.341C215.843 158.341 220.022 153.932 220.022 148.493C220.022 143.054 215.843 138.645 210.688 138.645C205.533 138.645 201.354 143.054 201.354 148.493C201.354 153.932 205.533 158.341 210.688 158.341Z" fill="#616A63"/>
<path d="M210.688 110.449C215.404 110.449 219.227 106.415 219.227 101.439C219.227 96.4636 215.404 92.4298 210.688 92.4298C205.972 92.4298 202.149 96.4636 202.149 101.439C202.149 106.415 205.972 110.449 210.688 110.449Z" fill="#616A63"/>
<path d="M210.688 62.5735C214.965 62.5735 218.432 58.9152 218.432 54.4024C218.432 49.8897 214.965 46.2314 210.688 46.2314C206.411 46.2314 202.943 49.8897 202.943 54.4024C202.943 58.9152 206.411 62.5735 210.688 62.5735Z" fill="#616A63"/>
<path d="M210.688 14.698C214.535 14.698 217.653 11.4078 217.653 7.34901C217.653 3.29026 214.535 0 210.688 0C206.841 0 203.723 3.29026 203.723 7.34901C203.723 11.4078 206.841 14.698 210.688 14.698Z" fill="#616A63"/>
<path d="M250.485 302C256.957 302 262.203 296.465 262.203 289.637C262.203 282.808 256.957 277.273 250.485 277.273C244.013 277.273 238.767 282.808 238.767 289.637C238.767 296.465 244.013 302 250.485 302Z" fill="#616A63"/>
<path d="M250.485 254.108C256.518 254.108 261.408 248.948 261.408 242.583C261.408 236.218 256.518 231.058 250.485 231.058C244.452 231.058 239.562 236.218 239.562 242.583C239.562 248.948 244.452 254.108 250.485 254.108Z" fill="#616A63"/>
<path d="M250.485 206.233C256.079 206.233 260.613 201.448 260.613 195.546C260.613 189.644 256.079 184.86 250.485 184.86C244.891 184.86 240.357 189.644 240.357 195.546C240.357 201.448 244.891 206.233 250.485 206.233Z" fill="#616A63"/>
<path d="M250.485 158.341C255.64 158.341 259.819 153.932 259.819 148.493C259.819 143.054 255.64 138.645 250.485 138.645C245.33 138.645 241.151 143.054 241.151 148.493C241.151 153.932 245.33 158.341 250.485 158.341Z" fill="#616A63"/>
<path d="M250.485 110.449C255.201 110.449 259.024 106.415 259.024 101.439C259.024 96.4636 255.201 92.4298 250.485 92.4298C245.769 92.4298 241.946 96.4636 241.946 101.439C241.946 106.415 245.769 110.449 250.485 110.449Z" fill="#616A63"/>
<path d="M250.485 62.5735C254.762 62.5735 258.229 58.9152 258.229 54.4024C258.229 49.8897 254.762 46.2314 250.485 46.2314C246.208 46.2314 242.741 49.8897 242.741 54.4024C242.741 58.9152 246.208 62.5735 250.485 62.5735Z" fill="#616A63"/>
<path d="M250.485 14.698C254.332 14.698 257.45 11.4078 257.45 7.34901C257.45 3.29026 254.332 0 250.485 0C246.638 0 243.52 3.29026 243.52 7.34901C243.52 11.4078 246.638 14.698 250.485 14.698Z" fill="#616A63"/>
<path d="M290.282 302C296.754 302 302 296.465 302 289.637C302 282.808 296.754 277.273 290.282 277.273C283.811 277.273 278.564 282.808 278.564 289.637C278.564 296.465 283.811 302 290.282 302Z" fill="#616A63"/>
<path d="M290.282 254.108C296.315 254.108 301.205 248.948 301.205 242.583C301.205 236.218 296.315 231.058 290.282 231.058C284.249 231.058 279.359 236.218 279.359 242.583C279.359 248.948 284.249 254.108 290.282 254.108Z" fill="#616A63"/>
<path d="M290.282 206.233C295.876 206.233 300.411 201.448 300.411 195.546C300.411 189.644 295.876 184.86 290.282 184.86C284.688 184.86 280.154 189.644 280.154 195.546C280.154 201.448 284.688 206.233 290.282 206.233Z" fill="#616A63"/>
<path d="M290.282 158.341C295.437 158.341 299.616 153.932 299.616 148.493C299.616 143.054 295.437 138.645 290.282 138.645C285.127 138.645 280.948 143.054 280.948 148.493C280.948 153.932 285.127 158.341 290.282 158.341Z" fill="#616A63"/>
<path d="M290.282 110.449C294.998 110.449 298.821 106.415 298.821 101.439C298.821 96.4636 294.998 92.4298 290.282 92.4298C285.566 92.4298 281.743 96.4636 281.743 101.439C281.743 106.415 285.566 110.449 290.282 110.449Z" fill="#616A63"/>
<path d="M290.282 62.5735C294.559 62.5735 298.027 58.9152 298.027 54.4024C298.027 49.8897 294.559 46.2314 290.282 46.2314C286.005 46.2314 282.538 49.8897 282.538 54.4024C282.538 58.9152 286.005 62.5735 290.282 62.5735Z" fill="#616A63"/>
<path d="M290.282 14.698C294.129 14.698 297.247 11.4078 297.247 7.34901C297.247 3.29026 294.129 0 290.282 0C286.435 0 283.317 3.29026 283.317 7.34901C283.317 11.4078 286.435 14.698 290.282 14.698Z" fill="#616A63"/>
</g>
</svg>
