<svg width="302" height="302" viewBox="0 0 302 302" fill="none" xmlns="http://www.w3.org/2000/svg">
<g opacity="0.15">
<path d="M290.282 -1.02441e-06C283.811 -1.59017e-06 278.564 5.53531 278.564 12.3635C278.564 19.1916 283.811 24.7269 290.282 24.7269C296.754 24.7269 302 19.1916 302 12.3635C302 5.53531 296.754 -4.58643e-07 290.282 -1.02441e-06Z" fill="#616A63"/>
<path d="M290.282 47.8919C284.249 47.8919 279.359 53.0518 279.359 59.4169C279.359 65.7819 284.249 70.9418 290.282 70.9418C296.315 70.9418 301.205 65.7819 301.205 59.4169C301.205 53.0518 296.315 47.8919 290.282 47.8919Z" fill="#616A63"/>
<path d="M290.282 95.7673C284.688 95.7673 280.154 100.552 280.154 106.454C280.154 112.356 284.688 117.14 290.282 117.14C295.876 117.14 300.411 112.356 300.411 106.454C300.411 100.552 295.876 95.7673 290.282 95.7673Z" fill="#616A63"/>
<path d="M290.282 143.659C285.127 143.659 280.948 148.068 280.948 153.507C280.948 158.946 285.127 163.355 290.282 163.355C295.437 163.355 299.616 158.946 299.616 153.507C299.616 148.068 295.437 143.659 290.282 143.659Z" fill="#616A63"/>
<path d="M290.282 191.551C285.566 191.551 281.743 195.585 281.743 200.561C281.743 205.536 285.566 209.57 290.282 209.57C294.998 209.57 298.821 205.536 298.821 200.561C298.821 195.585 294.998 191.551 290.282 191.551Z" fill="#616A63"/>
<path d="M290.282 239.427C286.005 239.427 282.538 243.085 282.538 247.598C282.538 252.11 286.005 255.769 290.282 255.769C294.559 255.769 298.027 252.11 298.027 247.598C298.027 243.085 294.559 239.427 290.282 239.427Z" fill="#616A63"/>
<path d="M290.282 287.302C286.435 287.302 283.317 290.592 283.317 294.651C283.317 298.71 286.435 302 290.282 302C294.129 302 297.247 298.71 297.247 294.651C297.247 290.592 294.129 287.302 290.282 287.302Z" fill="#616A63"/>
<path d="M250.501 -4.50222e-06C244.029 -5.06799e-06 238.783 5.5353 238.783 12.3635C238.783 19.1916 244.029 24.7269 250.501 24.7269C256.972 24.7269 262.218 19.1916 262.218 12.3635C262.218 5.53531 256.972 -3.93646e-06 250.501 -4.50222e-06Z" fill="#616A63"/>
<path d="M250.501 47.8919C244.468 47.8919 239.577 53.0518 239.577 59.4168C239.577 65.7819 244.468 70.9418 250.501 70.9418C256.533 70.9418 261.424 65.7819 261.424 59.4169C261.424 53.0518 256.533 47.8919 250.501 47.8919Z" fill="#616A63"/>
<path d="M250.501 95.7673C244.907 95.7673 240.372 100.552 240.372 106.454C240.372 112.356 244.907 117.14 250.501 117.14C256.094 117.14 260.629 112.356 260.629 106.454C260.629 100.552 256.094 95.7673 250.501 95.7673Z" fill="#616A63"/>
<path d="M250.501 143.659C245.346 143.659 241.167 148.068 241.167 153.507C241.167 158.946 245.346 163.355 250.501 163.355C255.656 163.355 259.834 158.946 259.834 153.507C259.834 148.068 255.656 143.659 250.501 143.659Z" fill="#616A63"/>
<path d="M250.501 191.551C245.785 191.551 241.962 195.585 241.962 200.561C241.962 205.536 245.785 209.57 250.501 209.57C255.217 209.57 259.04 205.536 259.04 200.561C259.04 195.585 255.217 191.551 250.501 191.551Z" fill="#616A63"/>
<path d="M250.501 239.427C246.223 239.427 242.756 243.085 242.756 247.598C242.756 252.11 246.223 255.769 250.501 255.769C254.778 255.769 258.245 252.11 258.245 247.598C258.245 243.085 254.778 239.427 250.501 239.427Z" fill="#616A63"/>
<path d="M250.501 287.302C246.654 287.302 243.535 290.592 243.535 294.651C243.535 298.71 246.654 302 250.501 302C254.347 302 257.466 298.71 257.466 294.651C257.466 290.592 254.347 287.302 250.501 287.302Z" fill="#616A63"/>
<path d="M210.704 -7.98139e-06C204.232 -8.54716e-06 198.986 5.5353 198.986 12.3635C198.986 19.1916 204.232 24.7269 210.704 24.7269C217.175 24.7269 222.421 19.1916 222.421 12.3635C222.421 5.5353 217.175 -7.41563e-06 210.704 -7.98139e-06Z" fill="#616A63"/>
<path d="M210.704 47.8919C204.671 47.8919 199.78 53.0518 199.78 59.4168C199.78 65.7819 204.671 70.9418 210.704 70.9418C216.736 70.9418 221.627 65.7819 221.627 59.4168C221.627 53.0518 216.736 47.8919 210.704 47.8919Z" fill="#616A63"/>
<path d="M210.704 95.7673C205.11 95.7673 200.575 100.552 200.575 106.454C200.575 112.356 205.11 117.14 210.703 117.14C216.297 117.14 220.832 112.356 220.832 106.454C220.832 100.552 216.297 95.7673 210.704 95.7673Z" fill="#616A63"/>
<path d="M210.703 143.659C205.549 143.659 201.37 148.068 201.37 153.507C201.37 158.946 205.549 163.355 210.703 163.355C215.858 163.355 220.037 158.946 220.037 153.507C220.037 148.068 215.858 143.659 210.703 143.659Z" fill="#616A63"/>
<path d="M210.703 191.551C205.987 191.551 202.164 195.585 202.164 200.561C202.164 205.536 205.987 209.57 210.703 209.57C215.419 209.57 219.243 205.536 219.243 200.561C219.243 195.585 215.419 191.551 210.703 191.551Z" fill="#616A63"/>
<path d="M210.703 239.427C206.426 239.427 202.959 243.085 202.959 247.598C202.959 252.11 206.426 255.769 210.703 255.769C214.981 255.769 218.448 252.11 218.448 247.598C218.448 243.085 214.981 239.427 210.703 239.427Z" fill="#616A63"/>
<path d="M210.703 287.302C206.857 287.302 203.738 290.592 203.738 294.651C203.738 298.71 206.857 302 210.703 302C214.55 302 217.669 298.71 217.669 294.651C217.669 290.592 214.55 287.302 210.703 287.302Z" fill="#616A63"/>
<path d="M170.906 -1.14606e-05C164.435 -1.20263e-05 159.189 5.5353 159.189 12.3635C159.189 19.1916 164.435 24.7269 170.906 24.7269C177.378 24.7269 182.624 19.1916 182.624 12.3635C182.624 5.5353 177.378 -1.08948e-05 170.906 -1.14606e-05Z" fill="#616A63"/>
<path d="M170.906 47.8919C164.874 47.8919 159.983 53.0518 159.983 59.4168C159.983 65.7819 164.874 70.9418 170.906 70.9418C176.939 70.9418 181.83 65.7819 181.83 59.4168C181.83 53.0518 176.939 47.8919 170.906 47.8919Z" fill="#616A63"/>
<path d="M170.906 95.7673C165.313 95.7673 160.778 100.552 160.778 106.454C160.778 112.356 165.313 117.14 170.906 117.14C176.5 117.14 181.035 112.356 181.035 106.454C181.035 100.552 176.5 95.7673 170.906 95.7673Z" fill="#616A63"/>
<path d="M170.906 143.659C165.751 143.659 161.573 148.068 161.573 153.507C161.573 158.946 165.751 163.355 170.906 163.355C176.061 163.355 180.24 158.946 180.24 153.507C180.24 148.068 176.061 143.659 170.906 143.659Z" fill="#616A63"/>
<path d="M170.906 191.551C166.19 191.551 162.367 195.585 162.367 200.561C162.367 205.536 166.19 209.57 170.906 209.57C175.622 209.57 179.445 205.536 179.445 200.561C179.445 195.585 175.622 191.551 170.906 191.551Z" fill="#616A63"/>
<path d="M170.906 239.427C166.629 239.427 163.162 243.085 163.162 247.598C163.162 252.11 166.629 255.769 170.906 255.769C175.183 255.769 178.651 252.11 178.651 247.598C178.651 243.085 175.183 239.427 170.906 239.427Z" fill="#616A63"/>
<path d="M170.906 287.302C167.06 287.302 163.941 290.592 163.941 294.651C163.941 298.71 167.06 302 170.906 302C174.753 302 177.872 298.71 177.872 294.651C177.872 290.592 174.753 287.302 170.906 287.302Z" fill="#616A63"/>
<path d="M131.109 -1.49397e-05C124.638 -1.55055e-05 119.391 5.53529 119.391 12.3634C119.391 19.1916 124.638 24.7269 131.109 24.7269C137.581 24.7269 142.827 19.1916 142.827 12.3635C142.827 5.53529 137.581 -1.4374e-05 131.109 -1.49397e-05Z" fill="#616A63"/>
<path d="M131.109 47.8919C125.077 47.8919 120.186 53.0518 120.186 59.4168C120.186 65.7819 125.077 70.9418 131.109 70.9418C137.142 70.9418 142.032 65.7819 142.032 59.4168C142.032 53.0518 137.142 47.8919 131.109 47.8919Z" fill="#616A63"/>
<path d="M131.109 95.7673C125.515 95.7673 120.981 100.552 120.981 106.454C120.981 112.356 125.515 117.14 131.109 117.14C136.703 117.14 141.238 112.356 141.238 106.454C141.238 100.552 136.703 95.7673 131.109 95.7673Z" fill="#616A63"/>
<path d="M131.109 143.659C125.954 143.659 121.775 148.068 121.775 153.507C121.775 158.946 125.954 163.355 131.109 163.355C136.264 163.355 140.443 158.946 140.443 153.507C140.443 148.068 136.264 143.659 131.109 143.659Z" fill="#616A63"/>
<path d="M131.109 191.551C126.393 191.551 122.57 195.585 122.57 200.561C122.57 205.536 126.393 209.57 131.109 209.57C135.825 209.57 139.648 205.536 139.648 200.561C139.648 195.585 135.825 191.551 131.109 191.551Z" fill="#616A63"/>
<path d="M131.109 239.427C126.832 239.427 123.365 243.085 123.365 247.598C123.365 252.11 126.832 255.769 131.109 255.769C135.386 255.769 138.854 252.11 138.854 247.598C138.854 243.085 135.386 239.427 131.109 239.427Z" fill="#616A63"/>
<path d="M131.109 287.302C127.262 287.302 124.144 290.592 124.144 294.651C124.144 298.71 127.262 302 131.109 302C134.956 302 138.075 298.71 138.075 294.651C138.075 290.592 134.956 287.302 131.109 287.302Z" fill="#616A63"/>
<path d="M91.3121 -1.84189e-05C84.8405 -1.89847e-05 79.5943 5.53529 79.5943 12.3634C79.5943 19.1916 84.8405 24.7269 91.3121 24.7269C97.7837 24.7269 103.03 19.1916 103.03 12.3634C103.03 5.53529 97.7837 -1.78532e-05 91.3121 -1.84189e-05Z" fill="#616A63"/>
<path d="M91.3121 47.8919C85.2794 47.8919 80.389 53.0518 80.389 59.4168C80.389 65.7819 85.2794 70.9418 91.3121 70.9418C97.3448 70.9418 102.235 65.7819 102.235 59.4168C102.235 53.0518 97.3448 47.8919 91.3121 47.8919Z" fill="#616A63"/>
<path d="M91.3121 95.7673C85.7183 95.7673 81.1836 100.552 81.1836 106.454C81.1836 112.356 85.7183 117.14 91.3121 117.14C96.9059 117.14 101.441 112.356 101.441 106.454C101.441 100.552 96.9059 95.7673 91.3121 95.7673Z" fill="#616A63"/>
<path d="M91.3121 143.659C86.1572 143.659 81.9783 148.068 81.9783 153.507C81.9783 158.946 86.1572 163.355 91.3121 163.355C96.467 163.355 100.646 158.946 100.646 153.507C100.646 148.068 96.467 143.659 91.3121 143.659Z" fill="#616A63"/>
<path d="M91.3121 191.551C86.5961 191.551 82.7731 195.585 82.773 200.561C82.773 205.536 86.5961 209.57 91.3121 209.57C96.0281 209.57 99.8512 205.536 99.8512 200.561C99.8512 195.585 96.0281 191.551 91.3121 191.551Z" fill="#616A63"/>
<path d="M91.3121 239.427C87.035 239.427 83.5677 243.085 83.5677 247.598C83.5677 252.11 87.035 255.769 91.3121 255.769C95.5892 255.769 99.0565 252.11 99.0565 247.598C99.0565 243.085 95.5892 239.427 91.3121 239.427Z" fill="#616A63"/>
<path d="M91.3121 287.302C87.4653 287.302 84.3468 290.592 84.3468 294.651C84.3468 298.71 87.4653 302 91.3121 302C95.1589 302 98.2774 298.71 98.2774 294.651C98.2774 290.592 95.1589 287.302 91.3121 287.302Z" fill="#616A63"/>
<path d="M51.515 -2.18981e-05C45.0434 -2.24639e-05 39.7971 5.53529 39.7971 12.3634C39.7971 19.1916 45.0434 24.7269 51.515 24.7269C57.9866 24.7269 63.2329 19.1916 63.2329 12.3634C63.2329 5.53529 57.9866 -2.13323e-05 51.515 -2.18981e-05Z" fill="#616A63"/>
<path d="M51.515 47.8919C45.4823 47.8919 40.5918 53.0518 40.5918 59.4168C40.5918 65.7819 45.4823 70.9418 51.515 70.9418C57.5477 70.9418 62.4382 65.7819 62.4382 59.4168C62.4382 53.0518 57.5477 47.8919 51.515 47.8919Z" fill="#616A63"/>
<path d="M51.515 95.7673C45.9212 95.7673 41.3865 100.552 41.3865 106.454C41.3865 112.356 45.9212 117.14 51.515 117.14C57.1088 117.14 61.6435 112.356 61.6435 106.454C61.6435 100.552 57.1088 95.7673 51.515 95.7673Z" fill="#616A63"/>
<path d="M51.515 143.659C46.3601 143.659 42.1812 148.068 42.1812 153.507C42.1812 158.946 46.3601 163.355 51.515 163.355C56.6699 163.355 60.8488 158.946 60.8488 153.507C60.8488 148.068 56.6699 143.659 51.515 143.659Z" fill="#616A63"/>
<path d="M51.515 191.551C46.799 191.551 42.9759 195.585 42.9759 200.561C42.9759 205.536 46.799 209.57 51.515 209.57C56.231 209.57 60.0541 205.536 60.0541 200.561C60.0541 195.585 56.231 191.551 51.515 191.551Z" fill="#616A63"/>
<path d="M51.515 239.427C47.2379 239.427 43.7706 243.085 43.7706 247.598C43.7706 252.11 47.2379 255.769 51.515 255.769C55.7921 255.769 59.2594 252.11 59.2594 247.598C59.2594 243.085 55.7921 239.427 51.515 239.427Z" fill="#616A63"/>
<path d="M51.515 287.302C47.6682 287.302 44.5497 290.592 44.5497 294.651C44.5497 298.71 47.6682 302 51.515 302C55.3618 302 58.4803 298.71 58.4803 294.651C58.4803 290.592 55.3618 287.302 51.515 287.302Z" fill="#616A63"/>
<path d="M11.7179 -2.53773e-05C5.2463 -2.5943e-05 2.59178e-05 5.53528 2.53208e-05 12.3634C2.47239e-05 19.1916 5.2463 24.7269 11.7179 24.7269C18.1895 24.7269 23.4358 19.1916 23.4358 12.3634C23.4358 5.53528 18.1895 -2.48115e-05 11.7179 -2.53773e-05Z" fill="#616A63"/>
<path d="M11.7179 47.8919C5.6852 47.8919 0.794699 53.0518 0.794699 59.4168C0.794698 65.7819 5.6852 70.9418 11.7179 70.9418C17.7506 70.9418 22.6411 65.7819 22.6411 59.4168C22.6411 53.0518 17.7506 47.8919 11.7179 47.8919Z" fill="#616A63"/>
<path d="M11.7179 95.7673C6.1241 95.7673 1.58943 100.552 1.58943 106.454C1.58943 112.356 6.1241 117.14 11.7179 117.14C17.3117 117.14 21.8464 112.356 21.8464 106.454C21.8464 100.552 17.3117 95.7673 11.7179 95.7673Z" fill="#616A63"/>
<path d="M11.7179 143.659C6.563 143.659 2.38411 148.068 2.38411 153.507C2.38411 158.946 6.563 163.355 11.7179 163.355C16.8728 163.355 21.0517 158.946 21.0517 153.507C21.0517 148.068 16.8728 143.659 11.7179 143.659Z" fill="#616A63"/>
<path d="M11.7179 191.551C7.00187 191.551 3.17878 195.585 3.17878 200.561C3.17878 205.536 7.00187 209.57 11.7179 209.57C16.4339 209.57 20.257 205.536 20.257 200.561C20.257 195.585 16.4339 191.551 11.7179 191.551Z" fill="#616A63"/>
<path d="M11.7179 239.427C7.44077 239.427 3.97349 243.085 3.97348 247.598C3.97348 252.11 7.44077 255.769 11.7179 255.769C15.995 255.769 19.4623 252.11 19.4623 247.598C19.4623 243.085 15.995 239.427 11.7179 239.427Z" fill="#616A63"/>
<path d="M11.7179 287.302C7.87106 287.302 4.75259 290.592 4.75259 294.651C4.75259 298.71 7.87106 302 11.7179 302C15.5647 302 18.6832 298.71 18.6832 294.651C18.6832 290.592 15.5647 287.302 11.7179 287.302Z" fill="#616A63"/>
</g>
</svg>
