<svg width="20" height="20" viewBox="0 0 20 20" fill="none" xmlns="http://www.w3.org/2000/svg">
<path d="M12.4997 9.99992H13.7497V13.5416L16.133 14.9499L15.508 15.9666L12.4997 14.1666V9.99992ZM15.833 6.66658H2.49967V14.9999H7.74134C7.58301 14.4749 7.49967 13.9166 7.49967 13.3333C7.49967 11.7862 8.11426 10.3024 9.20822 9.20846C10.3022 8.1145 11.7859 7.49992 13.333 7.49992C14.2247 7.49992 15.0747 7.69992 15.833 8.05825V6.66658ZM2.49967 16.6666C1.57467 16.6666 0.833008 15.9166 0.833008 14.9999V4.99992C0.833008 4.55789 1.0086 4.13397 1.32116 3.82141C1.63372 3.50885 2.05765 3.33325 2.49967 3.33325H7.49967L9.16634 4.99992H15.833C16.275 4.99992 16.699 5.17551 17.0115 5.48807C17.3241 5.80063 17.4997 6.22456 17.4997 6.66658V9.24992C18.533 10.2999 19.1663 11.7416 19.1663 13.3333C19.1663 14.8803 18.5518 16.3641 17.4578 17.458C16.3638 18.552 14.8801 19.1666 13.333 19.1666C11.3497 19.1666 9.58301 18.1749 8.54134 16.6666H2.49967ZM13.333 9.16658C12.2279 9.16658 11.1681 9.60557 10.3867 10.387C9.60533 11.1684 9.16634 12.2282 9.16634 13.3333C9.16634 14.4383 9.60533 15.4981 10.3867 16.2795C11.1681 17.0609 12.2279 17.4999 13.333 17.4999C14.4381 17.4999 15.4979 17.0609 16.2793 16.2795C17.0607 15.4981 17.4997 14.4383 17.4997 13.3333C17.4997 12.2282 17.0607 11.1684 16.2793 10.387C15.4979 9.60557 14.4381 9.16658 13.333 9.16658Z" fill="black"/>
</svg>
