<svg width="36" height="36" viewBox="0 0 36 36" fill="none" xmlns="http://www.w3.org/2000/svg">
<path d="M23.3438 0C21.3184 0 19.4209 0.778008 18 2.14038C16.5791 0.778008 14.6816 0 12.6562 0C8.39152 0 4.92188 3.46964 4.92188 7.73438C4.92188 11.9991 8.39152 15.4688 12.6562 15.4688C14.6817 15.4688 16.5793 14.6907 18.0001 13.3284C19.421 14.6908 21.3185 15.4688 23.3438 15.4688C27.6085 15.4688 31.0781 11.9991 31.0781 7.73438C31.0781 3.46964 27.6085 0 23.3438 0ZM17.575 7.90995C17.4827 10.5295 15.3392 12.6562 12.6562 12.6562C9.94233 12.6562 7.73438 10.4483 7.73438 7.73438C7.73438 5.02045 9.94233 2.8125 12.6562 2.8125C15.4654 2.8125 17.6727 5.1409 17.575 7.90995ZM23.3438 12.6562C21.9184 12.6562 20.5922 12.0513 19.6658 11.0065C20.122 10.0306 20.354 8.99529 20.3862 7.98434C20.4258 6.74691 20.1684 5.53739 19.6658 4.46224C20.5922 3.41747 21.9184 2.8125 23.3438 2.8125C26.0577 2.8125 28.2656 5.02045 28.2656 7.73438C28.2656 10.4483 26.0577 12.6562 23.3438 12.6562Z" fill="#F94E9A"/>
<path d="M32.7326 20.7619C30.3357 18.113 26.9136 16.5938 23.3438 16.5938C21.4964 16.5938 19.6641 17.0008 18 17.7753C16.3359 17.0008 14.5036 16.5938 12.6562 16.5938C9.08641 16.5938 5.6643 18.113 3.26707 20.7624C1.16023 23.0925 0 26.1068 0 29.25V34.5938C0 35.3704 0.629578 36 1.40625 36C1.95673 36 34.113 36 34.5938 36C35.3704 36 36 35.3704 36 34.5938V29.25C36 26.1068 34.8398 23.0925 32.7326 20.7619ZM22.5 33.1875H2.8125V29.25C2.8125 26.8051 3.71482 24.4607 5.35289 22.649C7.21758 20.5882 9.87961 19.4062 12.6562 19.4062C18.0935 19.4062 22.5 23.813 22.5 29.25V33.1875ZM33.1875 33.1875H25.3125V29.25C25.3125 25.5806 23.7305 22.1083 20.9609 19.6983C21.7373 19.5053 22.5385 19.4062 23.3438 19.4062C26.1204 19.4062 28.7824 20.5882 30.6468 22.6486C32.2852 24.4607 33.1875 26.8051 33.1875 29.25V33.1875Z" fill="#F94E9A"/>
</svg>
