<svg width="20" height="20" viewBox="0 0 20 20" fill="none" xmlns="http://www.w3.org/2000/svg">
<path d="M7.4996 8.33332C7.50823 7.67297 7.7744 7.04209 8.24138 6.5751C8.70836 6.10812 9.33924 5.84196 9.9996 5.83332C10.66 5.84196 11.2908 6.10812 11.7578 6.5751C12.2248 7.04209 12.491 7.67297 12.4996 8.33332C12.491 8.99368 12.2248 9.62456 11.7578 10.0915C11.2908 10.5585 10.66 10.8247 9.9996 10.8333C9.33924 10.8247 8.70836 10.5585 8.24138 10.0915C7.7744 9.62456 7.50823 8.99368 7.4996 8.33332ZM9.9996 15.8333L13.3329 16.6667V14.1C12.3277 14.7054 11.173 15.0171 9.9996 15C8.82625 15.0171 7.67154 14.7054 6.66627 14.1V16.6667L9.9996 15.8333ZM9.9996 3.33332C9.34291 3.32134 8.6907 3.44379 8.08307 3.69315C7.47545 3.94251 6.92524 4.3135 6.46627 4.78332C5.99136 5.2428 5.61608 5.79507 5.36376 6.4058C5.11144 7.01653 4.98748 7.67264 4.9996 8.33332C4.99092 8.98982 5.11654 9.64117 5.36876 10.2473C5.62098 10.8535 5.99446 11.4017 6.46627 11.8583C6.9231 12.3327 7.47235 12.7083 8.08007 12.962C8.6878 13.2157 9.3411 13.3421 9.9996 13.3333C10.6581 13.3421 11.3114 13.2157 11.9191 12.962C12.5269 12.7083 13.0761 12.3327 13.5329 11.8583C14.0047 11.4017 14.3782 10.8535 14.6304 10.2473C14.8827 9.64117 15.0083 8.98982 14.9996 8.33332C15.0117 7.67264 14.8878 7.01653 14.6354 6.4058C14.3831 5.79507 14.0078 5.2428 13.5329 4.78332C13.074 4.3135 12.5238 3.94251 11.9161 3.69315C11.3085 3.44379 10.6563 3.32134 9.9996 3.33332ZM16.6663 8.33332C16.6485 9.13322 16.4877 9.92348 16.1913 10.6667C15.9242 11.4228 15.5203 12.1234 14.9996 12.7333V19.1667L9.9996 17.5L4.9996 19.1667V12.7333C3.92101 11.522 3.32752 9.95522 3.33293 8.33332C3.31825 7.45881 3.48296 6.59057 3.81692 5.7822C4.15087 4.97383 4.64698 4.24248 5.2746 3.63332C5.88602 3.00007 6.62074 2.49885 7.4334 2.1606C8.24607 1.82235 9.11944 1.65424 9.9996 1.66666C10.8798 1.65424 11.7531 1.82235 12.5658 2.1606C13.3785 2.49885 14.1132 3.00007 14.7246 3.63332C15.3522 4.24248 15.8483 4.97383 16.1823 5.7822C16.5162 6.59057 16.681 7.45881 16.6663 8.33332Z" fill="black"/>
</svg>
