<svg width="36" height="36" viewBox="0 0 36 36" fill="none" xmlns="http://www.w3.org/2000/svg">
<path d="M17.9999 22.7484C16.3672 22.7484 14.735 22.3493 13.2467 21.551L2.51482 15.7945C0.958598 14.9599 -0.00484362 13.3457 0.000213642 11.5821C0.00533833 9.81844 0.978153 8.20996 2.53916 7.38421L13.2981 1.69331C16.2422 0.136083 19.7575 0.136083 22.7016 1.69331L33.4606 7.38421C35.0216 8.2099 35.9944 9.81837 35.9995 11.5821C36.0046 13.3457 35.0411 14.9599 33.485 15.7945L22.753 21.551C21.2651 22.3493 19.6322 22.7482 17.9999 22.7484ZM17.9999 3.33814C16.8366 3.33814 15.6735 3.61858 14.6131 4.17946L3.85432 9.87043C3.20429 10.2143 2.81488 10.8573 2.81279 11.5903C2.8107 12.3233 3.19627 12.9686 3.84434 13.3162L14.5763 19.0726C16.7203 20.2226 19.2799 20.2226 21.4238 19.0726L32.1558 13.3162C32.8039 12.9686 33.1895 12.3234 33.1874 11.5903C33.1853 10.8572 32.7959 10.2143 32.1458 9.87043L21.3866 4.17946C20.3263 3.61865 19.1631 3.33814 17.9999 3.33814ZM13.9557 2.93639H13.9564H13.9557ZM22.753 34.2774L35.2581 27.5701C35.9425 27.203 36.1997 26.3506 35.8326 25.6662C35.4656 24.9818 34.6132 24.7245 33.9288 25.0916L21.4236 31.7989C19.2799 32.9489 16.7202 32.9489 14.5708 31.796L2.06573 25.1591C1.37956 24.7949 0.528394 25.056 0.164406 25.7419C-0.199717 26.428 0.0612379 27.2791 0.747272 27.6433L13.2468 34.2773C14.7351 35.0756 16.3673 35.4747 17.9999 35.4747C19.6322 35.4747 21.2651 35.0755 22.753 34.2774ZM22.753 27.9494L35.2581 21.2421C35.9425 20.875 36.1997 20.0226 35.8326 19.3382C35.4656 18.6537 34.6132 18.3966 33.9288 18.7637L21.4236 25.4709C19.2799 26.621 16.7202 26.6208 14.5708 25.468L2.06573 18.8311C1.37956 18.467 0.528394 18.728 0.164406 19.414C-0.199717 20.1 0.0612379 20.9512 0.747272 21.3153L13.2468 27.9493C14.7351 28.7476 16.3673 29.1467 17.9999 29.1467C19.6322 29.1467 21.2651 28.7476 22.753 27.9494Z" fill="#AC24BB"/>
</svg>
