<svg width="36" height="36" viewBox="0 0 36 36" fill="none" xmlns="http://www.w3.org/2000/svg">
<g clip-path="url(#clip0)">
<path d="M33.1173 23.2036C33.1173 21.5058 31.9076 20.0853 30.3048 19.7587V15.9613C30.3048 15.6153 30.1352 15.2915 29.8508 15.0944C29.5665 14.8973 29.2035 14.8521 28.8797 14.9737L26.8667 15.7286C25.5448 14.3543 23.938 13.3192 22.1772 12.6838C23.9075 11.4017 25.0312 9.34544 25.0312 7.0314C25.0312 3.15422 21.877 0 17.9998 0C14.1226 0 10.9684 3.15422 10.9684 7.0314C10.9684 9.34544 12.0922 11.4017 13.8225 12.6838C12.0616 13.3193 10.4549 14.3544 9.13296 15.7286L7.11994 14.9737C6.79607 14.8521 6.43311 14.8973 6.14883 15.0944C5.86448 15.2915 5.69488 15.6153 5.69488 15.9613V19.7587C4.09208 20.0853 2.88232 21.5058 2.88232 23.2036C2.88232 24.9015 4.09208 26.3219 5.69488 26.6486V30.7272C5.69488 31.1669 5.96763 31.5604 6.37925 31.7148L17.6295 35.9336C17.8667 36.0221 18.1329 36.0221 18.3701 35.9336L29.6203 31.7148C30.032 31.5604 30.3047 31.1669 30.3047 30.7272V26.6486C31.9076 26.3219 33.1173 24.9014 33.1173 23.2036ZM13.0779 7.0314C13.0779 4.31742 15.2859 2.10942 17.9998 2.10942C20.7138 2.10942 22.9218 4.31742 22.9218 7.0314C22.9218 9.74538 20.7138 11.9534 17.9998 11.9534C15.2859 11.9534 13.0779 9.74538 13.0779 7.0314ZM17.9998 14.0628C20.4709 14.0628 22.831 14.9559 24.6726 16.5514L17.9998 19.0537L11.3271 16.5514C13.1687 14.9559 15.5289 14.0628 17.9998 14.0628ZM4.99174 23.2036C4.99174 22.4282 5.6226 21.7973 6.39802 21.7973H7.10116V24.6099H6.39802C5.6226 24.6099 4.99174 23.979 4.99174 23.2036ZM7.8043 26.684C8.60567 26.5206 9.21058 25.8104 9.21058 24.9615V21.4458C9.21058 20.5969 8.60567 19.8866 7.8043 19.7233V17.4832L16.9451 20.911V33.4242L7.8043 29.9964V26.684ZM19.0545 33.4241V20.911L28.1954 17.4832V19.7233C27.394 19.8866 26.7891 20.5969 26.7891 21.4458V24.9615C26.7891 25.8104 27.394 26.5206 28.1954 26.684V29.9963L19.0545 33.4241ZM29.6016 24.6099H28.8985V21.7973H29.6016C30.3771 21.7973 31.0079 22.4282 31.0079 23.2036C31.0079 23.979 30.3771 24.6099 29.6016 24.6099Z" fill="#00BEEE"/>
</g>
<defs>
<clipPath id="clip0">
<rect width="36" height="36" fill="white"/>
</clipPath>
</defs>
</svg>
