<svg width="36" height="36" viewBox="0 0 36 36" fill="none" xmlns="http://www.w3.org/2000/svg">
<g clip-path="url(#clip0)">
<path d="M28.2314 0H7.77316C5.85299 0 4.29091 1.56215 4.29091 3.48225C4.29091 29.3781 4.26269 27.8146 4.35105 28.0798C4.41032 28.2573 4.50956 28.4116 4.62898 28.5316C4.70138 28.6043 11.7519 35.663 11.8545 35.7418C12.3131 36.095 11.6081 35.9832 28.2314 35.9832C30.1515 35.9832 31.7136 34.4211 31.7136 32.501V3.48225C31.7136 1.56215 30.1515 0 28.2314 0V0ZM11.4005 32.0202L8.25393 28.8736H11.4005V32.0202ZM29.3921 32.501C29.3921 33.141 28.8714 33.6617 28.2314 33.6617H13.722V27.7129C13.722 27.0719 13.2023 26.5521 12.5613 26.5521H6.61241V3.48225C6.61241 2.84224 7.13315 2.3215 7.77316 2.3215H28.2314C28.8714 2.3215 29.3921 2.84224 29.3921 3.48225V32.501ZM25.6922 23.4326C25.6922 24.0737 25.1726 24.5934 24.5315 24.5934H11.4005C10.7594 24.5934 10.2398 24.0737 10.2398 23.4326C10.2398 22.7916 10.7594 22.2719 11.4005 22.2719H24.5315C25.1726 22.2719 25.6922 22.7916 25.6922 23.4326ZM25.6922 29.3815C25.6922 30.0225 25.1726 30.5422 24.5315 30.5422H17.0592C16.4181 30.5422 15.8984 30.0225 15.8984 29.3815C15.8984 28.7405 16.4181 28.2207 17.0592 28.2207H24.5315C25.1726 28.2207 25.6922 28.7405 25.6922 29.3815ZM17.9547 12.1935C20.1089 12.1935 21.8615 10.4409 21.8615 8.28666C21.8615 6.13246 20.109 4.37987 17.9547 4.37987C15.8004 4.37987 14.0479 6.13246 14.0479 8.28666C14.0479 10.4409 15.8005 12.1935 17.9547 12.1935ZM17.9547 6.70137C18.8288 6.70137 19.54 7.41255 19.54 8.28666C19.54 9.16078 18.8288 9.87196 17.9547 9.87196C17.0806 9.87196 16.3694 9.16078 16.3694 8.28666C16.3694 7.41255 17.0806 6.70137 17.9547 6.70137ZM12.077 17.8792V16.2877C12.077 15.284 12.6692 14.371 13.5858 13.9617L15.4267 13.1397C15.7354 13.0018 15.5192 13.0388 19.9831 13.0388C20.3094 13.0388 20.2982 13.0691 22.2973 13.9616C23.2138 14.371 23.806 15.284 23.806 16.2876V17.8792C23.806 18.5202 23.2864 19.0399 22.6453 19.0399C22.0042 19.0399 21.4845 18.5202 21.4845 17.8792V16.2876C21.4845 16.1986 21.432 16.1177 21.3507 16.0815L19.7356 15.3603H16.1473L14.5322 16.0815C14.451 16.1177 14.3984 16.1987 14.3984 16.2876V17.8792C14.3984 18.5202 13.8788 19.0399 13.2377 19.0399C12.5966 19.0399 12.077 18.5203 12.077 17.8792Z" fill="#AC24BB"/>
</g>
<defs>
<clipPath id="clip0">
<rect width="36" height="36" fill="white"/>
</clipPath>
</defs>
</svg>
