<svg width="48" height="48" viewBox="0 0 48 48" fill="none" xmlns="http://www.w3.org/2000/svg">
<path d="M45.2432 41.3001C44.1595 36.9651 40.2324 33.9375 35.6934 33.9375H29.6249V32.4147C32.9849 30.4505 35.2499 26.7839 35.2499 22.5938V12.6524C36.9566 11.3683 38.0624 9.32662 38.0624 7.03125C38.0624 3.15422 34.9082 0 31.0312 0C30.604 0 30.1753 0.0388125 29.7567 0.115406L14.5433 2.90494C11.8745 3.39422 9.93744 5.721 9.93744 8.4375C9.93744 10.5149 11.0703 12.3316 12.7499 13.3057V22.5938C12.7499 26.7839 15.0149 30.4505 18.3749 32.4147V33.9375H12.3065C7.78129 33.9375 3.85429 37.0037 2.75675 41.3938L1.54204 46.2527C1.43694 46.6728 1.53135 47.1179 1.79788 47.4592C2.06432 47.8005 2.47316 48 2.90619 48H45.0937C45.5256 48 45.9336 47.8015 46.2002 47.4616C46.4668 47.1217 46.5624 46.6782 46.4595 46.2587L45.2432 41.3001ZM19.2313 37.8824L21.3154 43.4401L16.4524 40.6613L19.2313 37.8824ZM28.7686 37.8824L31.5475 40.6613L26.6845 43.4401L28.7686 37.8824ZM15.0505 5.67131L30.2635 2.88188C30.5151 2.83584 30.7734 2.8125 31.0312 2.8125C33.3574 2.8125 35.2499 4.70503 35.2499 7.03125C35.2499 9.35747 33.3574 11.25 31.0312 11.25H27.9768C28.1329 10.8098 28.2187 10.3367 28.2187 9.84375C28.2187 7.51753 26.3262 5.625 23.9999 5.625C21.6737 5.625 19.7812 7.51753 19.7812 9.84375C19.7812 10.3367 19.867 10.8098 20.0231 11.25H15.5624C14.0116 11.25 12.7499 9.98831 12.7499 8.4375C12.7499 7.07906 13.7174 5.91572 15.0505 5.67131ZM22.5937 9.84375C22.5937 9.06834 23.2245 8.4375 23.9999 8.4375C24.7753 8.4375 25.4062 9.06834 25.4062 9.84375C25.4062 10.6192 24.7753 11.25 23.9999 11.25C23.2245 11.25 22.5937 10.6192 22.5937 9.84375ZM31.0312 14.0625C31.5127 14.0625 31.9829 14.0137 32.4374 13.921V22.4358C31.4209 22.2111 30.4886 21.7751 29.5186 21.3205C27.9796 20.599 26.2353 19.7812 23.9999 19.7812C21.7646 19.7812 20.0203 20.599 18.4813 21.3204C17.5113 21.7751 16.579 22.211 15.5624 22.4357V14.0625H31.0312ZM15.973 25.2228C17.3794 24.9412 18.5806 24.3801 19.6751 23.8671C21.0718 23.2122 22.3911 22.5938 23.9999 22.5938C25.6088 22.5938 26.928 23.2122 28.3249 23.8671C29.4193 24.3801 30.6205 24.9412 32.027 25.2228C30.9282 28.6444 27.7454 31.125 23.9999 31.125C20.2544 31.125 17.0717 28.6444 15.973 25.2228ZM23.9999 33.9375C24.9707 33.9375 25.9132 33.8128 26.8124 33.5785V35.0887L23.9999 42.5887L21.1874 35.0887V33.5785C22.0867 33.8128 23.0292 33.9375 23.9999 33.9375ZM5.48516 42.0759C6.26919 38.9401 9.07419 36.75 12.3065 36.75H16.3863L13.1619 39.9744C12.8519 40.2844 12.7042 40.7211 12.7624 41.1555C12.8205 41.5898 13.078 41.9723 13.4585 42.1898L18.7047 45.1875H4.70732L5.48516 42.0759ZM29.2952 45.1875L34.5414 42.1897C34.9219 41.9723 35.1793 41.5897 35.2375 41.1554C35.2957 40.721 35.1479 40.2843 34.838 39.9743L31.6137 36.75H35.6935C38.9396 36.75 41.7446 38.9016 42.5132 41.9761L43.3008 45.1875H29.2952Z" fill="#F2C94C"/>
</svg>
