<svg width="36" height="36" viewBox="0 0 36 36" fill="none" xmlns="http://www.w3.org/2000/svg">
<g clip-path="url(#clip0)">
<path d="M9.06358 14.933C8.94018 15.313 9.04199 15.7301 9.32662 16.0104L12.8728 19.5027L12.0571 24.4121C11.9916 24.8062 12.1544 25.2035 12.4776 25.4383C12.8009 25.673 13.229 25.7051 13.5835 25.521L18 23.2281L22.4165 25.521C22.5695 25.6005 22.7363 25.6396 22.9023 25.6396C23.121 25.6396 23.3386 25.5717 23.5224 25.4382C23.8456 25.2034 24.0084 24.8062 23.9429 24.4121L23.1272 19.5026L26.6734 16.0104C26.958 15.73 27.0599 15.3129 26.9364 14.933C26.813 14.553 26.4854 14.2754 26.0904 14.2159L21.1694 13.475L18.9434 9.02297C18.7647 8.66564 18.3995 8.43994 18 8.43994C17.6005 8.43994 17.2354 8.66564 17.0566 9.02297L14.8306 13.475L9.90964 14.2159C9.51456 14.2755 9.18705 14.5531 9.06358 14.933ZM15.6862 15.4794C16.0256 15.4282 16.319 15.2151 16.4725 14.9081L18 11.853L19.5275 14.9081C19.6811 15.2151 19.9744 15.4282 20.3138 15.4794L23.6902 15.9877L21.2571 18.3839C21.0124 18.6248 20.9004 18.9696 20.9567 19.3083L21.5164 22.677L18.486 21.1037C18.3336 21.0246 18.1668 20.9851 18 20.9851C17.8331 20.9851 17.6664 21.0246 17.514 21.1037L14.4836 22.677L15.0433 19.3083C15.0996 18.9696 14.9875 18.6248 14.7429 18.3839L12.3098 15.9877L15.6862 15.4794Z" fill="#00BEEE"/>
<path d="M35.2142 20.6631C35.1154 20.637 33.3314 20.1795 31.4511 20.5469C31.617 19.7395 31.7085 18.9268 31.7268 18.1172C32.7832 17.6522 34.5909 16.642 35.4437 14.9057C36.6648 12.42 35.4923 9.45418 35.4418 9.32917C35.2363 8.82046 34.6749 8.55426 34.1512 8.71696C34.0323 8.75388 31.5328 9.54904 30.1213 11.4499C29.7123 10.6898 29.2267 9.95951 28.6657 9.26898C29.1103 8.2579 29.7348 6.34246 29.1495 4.48152C28.3186 1.83969 25.4237 0.50152 25.3009 0.445833C24.8114 0.223929 24.2331 0.405756 23.9586 0.867986C23.8898 0.98393 22.2821 3.73825 23.1129 6.38008C23.8474 8.71535 26.1942 10.0317 26.8139 10.3443C33.2503 17.8438 27.8861 29.4874 18.0001 29.4874C8.08785 29.4874 2.69879 17.7848 9.24764 10.2734C10.0034 9.87992 12.1495 8.59589 12.8582 6.39084C13.7054 3.75422 12.1149 0.989977 12.0468 0.873611C11.7752 0.409693 11.1982 0.224211 10.7071 0.443091C10.5839 0.498005 7.68081 1.81818 6.83348 4.4548C6.22634 6.34422 6.87096 8.29882 7.31027 9.29795C6.76036 9.97752 6.28013 10.6972 5.87352 11.4488C4.4509 9.55578 1.93232 8.85773 1.81251 8.82546C1.29797 8.68694 0.760717 8.95406 0.560679 9.44807C0.510055 9.57308 -0.664716 12.538 0.554351 15.0246C1.40379 16.7573 3.19857 17.7114 4.26661 18.1463C4.28742 18.9571 4.38136 19.7667 4.54645 20.5657C2.672 20.191 0.891075 20.636 0.792146 20.6615C0.243643 20.8026 -0.0955415 21.3517 0.0239184 21.9054C0.0533087 22.0417 0.771475 25.2603 3.13058 26.6816C4.16156 27.3028 5.32129 27.4811 6.31402 27.4811C6.99738 27.4811 7.60136 27.3966 8.02963 27.3135C8.51246 27.8302 9.032 28.3056 9.58387 28.7365C9.08874 28.8883 8.59564 29.1085 8.13545 29.4219C5.84637 30.9807 5.40179 34.1388 5.384 34.2725C5.31299 34.8054 5.65421 35.3064 6.17607 35.4355C6.24068 35.4516 7.02916 35.6407 8.08644 35.6407C9.17093 35.6407 10.5384 35.4416 11.6973 34.6523C13.0952 33.7003 13.8051 32.1521 14.1501 31.0603C15.3751 31.4118 16.6672 31.5968 18 31.5968C19.3144 31.5968 20.5893 31.4166 21.7992 31.0742C22.1492 32.1648 22.8778 33.7476 24.3149 34.7018C25.4464 35.453 26.7668 35.6484 27.834 35.6484C28.9429 35.6484 29.7786 35.4374 29.8451 35.4202C30.3654 35.2849 30.7006 34.7799 30.6234 34.248C30.6041 34.1145 30.1225 30.9619 27.8153 29.43C27.3559 29.125 26.8654 28.9119 26.3733 28.766C26.9494 28.3191 27.4907 27.8241 27.9919 27.2842C28.4329 27.3718 29.0317 27.4563 29.7048 27.4563C30.6838 27.4563 31.8175 27.2775 32.8413 26.6693C35.2096 25.2622 35.9449 22.047 35.9749 21.9108C36.0972 21.3581 35.7615 20.8075 35.2142 20.6631ZM10.51 32.9089C9.65503 33.4911 8.54059 33.5675 7.73453 33.5241C7.9904 32.7573 8.47056 31.7457 9.32267 31.1654C10.1777 30.5832 11.2923 30.507 12.0981 30.5501C11.8422 31.3169 11.3621 32.3286 10.51 32.9089ZM8.84166 5.10019C9.15835 4.1147 9.99161 3.36898 10.6539 2.90794C10.9238 3.669 11.1665 4.76031 10.8498 5.74552C10.5334 6.73009 9.70144 7.4754 9.03882 7.93678C8.76938 7.17467 8.52631 6.08168 8.84166 5.10019ZM2.44827 14.0961C1.98871 13.1588 2.07667 12.0328 2.23635 11.2401C2.99811 11.5983 4.00371 12.2236 4.4665 13.1676C4.61226 13.465 4.71161 13.8037 4.76322 14.1761C4.60439 14.7364 4.48268 15.3072 4.39929 15.8857C3.63542 15.4822 2.83351 14.8818 2.44827 14.0961ZM4.21908 24.8748C3.3316 24.3402 2.7677 23.3277 2.44412 22.5435C3.28013 22.4847 4.42354 22.5354 5.30765 23.0681C5.31046 23.0698 5.3132 23.0717 5.31594 23.0734C5.3665 23.196 5.41839 23.3182 5.47253 23.4397C5.77508 24.1188 6.1246 24.763 6.51574 25.3697C5.78809 25.3947 4.92754 25.3016 4.21908 24.8748ZM28.2651 33.5256C27.4585 33.5779 26.3404 33.5148 25.4817 32.9445C24.6199 32.3723 24.1287 31.3687 23.8648 30.6062C24.6718 30.5539 25.7896 30.6169 26.6484 31.1872C27.51 31.7593 28.0012 32.7626 28.2651 33.5256ZM31.5328 13.1654C32.0007 12.2128 33.0034 11.5508 33.7709 11.1602C33.9244 11.9521 34.0012 13.058 33.5504 13.9757C33.1605 14.7695 32.3535 15.3998 31.5828 15.8351C31.5003 15.2828 31.3831 14.7358 31.2317 14.1969C31.2827 13.8153 31.3837 13.4689 31.5328 13.1654ZM25.125 5.74727C24.8145 4.75989 25.0641 3.66984 25.3385 2.91097C25.9984 3.37643 26.8267 4.12722 27.1372 5.1144C27.4477 6.10158 27.1983 7.19127 26.9236 7.95064C26.2638 7.48517 25.4355 6.73445 25.125 5.74727ZM31.7639 24.8558C31.0604 25.2737 30.2155 25.3655 29.4964 25.3397C29.8781 24.744 30.2197 24.1124 30.5162 23.4471C30.5763 23.3121 30.6338 23.1766 30.6894 23.0407C31.5801 22.5129 32.7182 22.4688 33.5502 22.533C33.2212 23.3168 32.6508 24.3289 31.7639 24.8558Z" fill="#00BEEE"/>
</g>
<defs>
<clipPath id="clip0">
<rect width="36" height="36" fill="white"/>
</clipPath>
</defs>
</svg>
