<svg width="36" height="36" viewBox="0 0 36 36" fill="none" xmlns="http://www.w3.org/2000/svg">
<g clip-path="url(#clip0)">
<path d="M36 29.854V4.0335H23.5795C22.3082 2.33467 20.2803 1.23315 18 1.23315C15.7197 1.23315 13.6918 2.33467 12.4205 4.0335H0V29.854H12.7251V32.6573H9.20872V34.7667H26.789V32.6573H23.2725V29.854H36ZM24.9651 8.19827C24.9651 7.48312 24.8566 6.79286 24.6555 6.14288H33.8906V23.5255H28.6404V22.4063C28.6404 19.2439 26.1204 16.6606 22.9833 16.5551C22.985 16.5533 22.9867 16.5516 22.9883 16.5499H26.789V14.4405C25.7833 14.4405 24.9651 13.6223 24.9651 12.6167V8.19827ZM19.2608 18.6593C19.2103 19.3113 18.6648 19.8268 18 19.8268C17.3352 19.8268 16.7897 19.3114 16.7392 18.6593H19.2608ZM22.8557 11.6942C22.8557 14.3717 20.6775 16.5499 18 16.5499C15.3225 16.5499 13.1443 14.3717 13.1443 11.6942V9.25296H15.2245C16.3157 9.25296 17.3017 8.79438 18 8.05968C18.6983 8.79438 19.6843 9.25296 20.7755 9.25296H22.8557V11.6942ZM13.2137 18.6593H14.6274C14.6797 20.4749 16.1719 21.9362 18.0001 21.9362C19.8282 21.9362 21.3204 20.475 21.3728 18.6593H22.7842C24.8503 18.6593 26.5311 20.3402 26.5311 22.4062V23.5255H9.46677V22.4062C9.46677 20.3402 11.1476 18.6593 13.2137 18.6593ZM18 3.34254C20.3152 3.34254 22.2559 4.97175 22.739 7.14358H20.7755C19.8267 7.14358 19.0547 6.37161 19.0547 5.42274H16.9453C16.9453 6.37161 16.1733 7.14358 15.2245 7.14358H13.261C13.7441 4.97175 15.6848 3.34254 18 3.34254ZM11.0349 12.6166C11.0349 13.6223 10.2167 14.4404 9.21097 14.4404V16.5498H13.0117C13.0133 16.5515 13.015 16.5533 13.0167 16.5549C9.87852 16.6594 7.35739 19.2431 7.35739 22.4062V23.5255H2.10938V6.14288H11.3445C11.1434 6.79286 11.0349 7.48312 11.0349 8.19827V12.6166ZM2.10938 25.6349H33.8906V27.7446H2.10938V25.6349ZM21.1632 32.6573H14.8345V29.854H21.1632V32.6573Z" fill="#F94E9A"/>
</g>
<defs>
<clipPath id="clip0">
<rect width="36" height="36" fill="white"/>
</clipPath>
</defs>
</svg>
